<svg width="24" height="24" viewBox="0 0 24 24" fill="none" xmlns="http://www.w3.org/2000/svg">
<g clip-path="url(#clip0_4863_5786)">
<path d="M20.61 6.44H17.81C17.33 6.44 16.94 6.05 16.94 5.57C16.94 4.7 16.24 4 15.37 4H8.81C7.94 4 7.24 4.7 7.24 5.57C7.24 6.05 6.85 6.44 6.37 6.44H3.57C2.7 6.44 2 7.14 2 8.01V18.57C2 19.44 2.7 20.14 3.57 20.14H20.61C21.48 20.14 22.18 19.44 22.18 18.57V8.01C22.18 7.14 21.48 6.44 20.61 6.44ZM15.48 12.93C15.48 14.81 13.95 16.33 12.08 16.33C10.21 16.33 8.68 14.8 8.68 12.93C8.68 11.06 10.21 9.53 12.08 9.53C13.95 9.53 15.48 11.05 15.48 12.93Z" fill="#0F0F0F"/>
</g>
<defs>
<clipPath id="clip0_4863_5786">
<rect width="20.18" height="16.14" fill="white" transform="translate(2 4)"/>
</clipPath>
</defs>
</svg>
