<svg width="20" height="20" viewBox="0 0 20 20" fill="none" xmlns="http://www.w3.org/2000/svg">
<path d="M18.7008 9.32016C18.7008 9.32016 18.7008 9.29016 18.7008 9.28016C18.7408 8.91016 18.6108 8.51016 18.2808 8.21016L10.8408 1.60016C10.3608 1.18016 9.65078 1.18016 9.17078 1.60016L1.73078 8.21016C1.42078 8.49016 1.29078 8.85016 1.31078 9.21016C1.31078 9.25016 1.30078 9.28016 1.30078 9.32016V17.2502C1.30078 18.0402 1.94078 18.6902 2.73078 18.6902H7.51078V14.6902C7.51078 13.3102 8.63078 12.1902 10.0108 12.1902C11.3908 12.1902 12.5108 13.3102 12.5108 14.6902V18.6902H17.2908C18.0808 18.6902 18.7208 18.0502 18.7208 17.2502V9.32016H18.7008Z" fill="#0F0F0F" stroke="#0F0F0F" stroke-width="0.7" stroke-linecap="round" stroke-linejoin="round"/>
</svg>
