<svg width="24" height="24" viewBox="0 0 24 24" fill="none" xmlns="http://www.w3.org/2000/svg">
<path d="M17.9919 16.2497H8.02188C7.44188 16.2497 6.93188 15.7897 6.82188 15.1497L5.29187 8.60969L4.92188 6.92969L19.4719 6.95969C20.2519 6.95969 20.8319 7.75969 20.6719 8.60969L19.2019 15.1497C19.0819 15.7897 18.5819 16.2497 18.0019 16.2497H17.9919Z" fill="#0F0F0F"/>
<path d="M17.9899 16.6001H8.01985C7.26985 16.6001 6.61985 16.0201 6.46985 15.2201L4.56985 7.01009C4.54985 6.91009 4.56985 6.80009 4.63985 6.72009C4.70985 6.64009 4.80985 6.59009 4.90985 6.59009L19.4598 6.62009C19.8998 6.62009 20.3299 6.83009 20.6299 7.18009C20.9699 7.59009 21.1099 8.14009 21.0099 8.68009L19.5399 15.2301C19.3999 16.0201 18.7399 16.6001 17.9899 16.6001ZM5.34985 7.28009L5.62985 8.53009L7.15985 15.0701C7.24985 15.5601 7.60985 15.9001 8.01985 15.9001H17.9899C18.3999 15.9001 18.7599 15.5601 18.8499 15.0901L20.3198 8.54009C20.3798 8.22009 20.2899 7.87009 20.0899 7.63009C19.9199 7.43009 19.6998 7.32009 19.4598 7.32009L5.34985 7.29009V7.28009Z" fill="#0F0F0F"/>
<path d="M9.66875 20.7203C10.4696 20.7203 11.1187 20.0711 11.1187 19.2703C11.1187 18.4695 10.4696 17.8203 9.66875 17.8203C8.86794 17.8203 8.21875 18.4695 8.21875 19.2703C8.21875 20.0711 8.86794 20.7203 9.66875 20.7203Z" fill="#0F0F0F"/>
<path d="M9.67109 21.0697C8.68109 21.0697 7.87109 20.2597 7.87109 19.2697C7.87109 18.2797 8.68109 17.4697 9.67109 17.4697C10.6611 17.4697 11.4711 18.2797 11.4711 19.2697C11.4711 20.2597 10.6611 21.0697 9.67109 21.0697ZM9.67109 18.1697C9.06109 18.1697 8.57109 18.6597 8.57109 19.2697C8.57109 19.8797 9.06109 20.3697 9.67109 20.3697C10.2811 20.3697 10.7711 19.8797 10.7711 19.2697C10.7711 18.6597 10.2811 18.1697 9.67109 18.1697Z" fill="#0F0F0F"/>
<path d="M15.9383 20.7203C16.7391 20.7203 17.3883 20.0711 17.3883 19.2703C17.3883 18.4695 16.7391 17.8203 15.9383 17.8203C15.1375 17.8203 14.4883 18.4695 14.4883 19.2703C14.4883 20.0711 15.1375 20.7203 15.9383 20.7203Z" fill="#0F0F0F"/>
<path d="M15.9406 21.0697C14.9506 21.0697 14.1406 20.2597 14.1406 19.2697C14.1406 18.2797 14.9506 17.4697 15.9406 17.4697C16.9306 17.4697 17.7406 18.2797 17.7406 19.2697C17.7406 20.2597 16.9306 21.0697 15.9406 21.0697ZM15.9406 18.1697C15.3306 18.1697 14.8406 18.6597 14.8406 19.2697C14.8406 19.8797 15.3306 20.3697 15.9406 20.3697C16.5506 20.3697 17.0406 19.8797 17.0406 19.2697C17.0406 18.6597 16.5506 18.1697 15.9406 18.1697Z" fill="#0F0F0F"/>
<path d="M5.90181 11.58C5.74181 11.58 5.60181 11.47 5.56181 11.31L4.27181 5.55995C4.13181 4.90995 3.99181 4.22995 3.53181 3.98995L2.84181 3.61995C2.67181 3.52995 2.61181 3.31995 2.70181 3.14995C2.79181 2.97995 3.00181 2.90995 3.17181 3.00995L3.86181 3.37995C4.60181 3.77995 4.79181 4.64995 4.95181 5.41995L4.97181 5.51995L6.24181 11.17C6.28181 11.36 6.16181 11.55 5.97181 11.59C5.94181 11.59 5.92181 11.59 5.89181 11.59L5.90181 11.58Z" fill="#0F0F0F"/>
</svg>
