<svg width="26" height="26" viewBox="0 0 26 26" fill="none" xmlns="http://www.w3.org/2000/svg">
<path d="M12.9883 18.0703C15.2319 18.0703 17.0508 16.2515 17.0508 14.0078C17.0508 11.7642 15.2319 9.94531 12.9883 9.94531C10.7446 9.94531 8.92578 11.7642 8.92578 14.0078C8.92578 16.2515 10.7446 18.0703 12.9883 18.0703Z" stroke="black" stroke-width="0.7" stroke-linecap="round" stroke-linejoin="round"/>
<path d="M17.8759 6.03456C17.8759 5.30872 17.2801 4.71289 16.5542 4.71289H9.44755C8.72172 4.71289 8.12589 5.30872 8.12589 6.03456C8.12589 6.76039 7.53005 7.35622 6.80422 7.35622H3.77089C3.04505 7.35622 2.44922 7.95206 2.44922 8.67789V20.1179C2.44922 20.8437 3.04505 21.4396 3.77089 21.4396H22.2309C22.9567 21.4396 23.5526 20.8437 23.5526 20.1179V8.67789C23.5526 7.95206 22.9567 7.35622 22.2309 7.35622H19.1976C18.4717 7.35622 17.8759 6.76039 17.8759 6.03456Z" stroke="black" stroke-width="0.7" stroke-linecap="round" stroke-linejoin="round"/>
</svg>
