<svg width="24" height="24" viewBox="0 0 24 24" fill="none" xmlns="http://www.w3.org/2000/svg">
<g clip-path="url(#clip0_4863_5758)">
<path d="M18.3395 16.3005H8.36953C7.78953 16.3005 7.27953 15.8405 7.16953 15.2005L5.63953 8.66047L5.26953 6.98047L19.8195 7.01047C20.5995 7.01047 21.1795 7.81047 21.0195 8.66047L19.5495 15.2005C19.4295 15.8405 18.9295 16.3005 18.3495 16.3005H18.3395Z" stroke="black" stroke-width="0.7" stroke-linecap="round" stroke-linejoin="round"/>
<path d="M10.0203 20.77C10.8211 20.77 11.4703 20.1208 11.4703 19.32C11.4703 18.5192 10.8211 17.87 10.0203 17.87C9.2195 17.87 8.57031 18.5192 8.57031 19.32C8.57031 20.1208 9.2195 20.77 10.0203 20.77Z" stroke="black" stroke-width="0.7" stroke-linecap="round" stroke-linejoin="round"/>
<path d="M16.2898 20.77C17.0907 20.77 17.7398 20.1208 17.7398 19.32C17.7398 18.5192 17.0907 17.87 16.2898 17.87C15.489 17.87 14.8398 18.5192 14.8398 19.32C14.8398 20.1208 15.489 20.77 16.2898 20.77Z" stroke="black" stroke-width="0.7" stroke-linecap="round" stroke-linejoin="round"/>
<path d="M6.25156 11.2796L4.98156 5.62961C4.82156 4.86961 4.67156 4.05961 4.04156 3.71961L3.35156 3.34961" stroke="black" stroke-width="0.7" stroke-linecap="round" stroke-linejoin="round"/>
</g>
<defs>
<clipPath id="clip0_4863_5758">
<rect width="18.39" height="18.12" fill="white" transform="translate(3 3)"/>
</clipPath>
</defs>
</svg>
