<svg width="20" height="21" viewBox="0 0 20 21" fill="none" xmlns="http://www.w3.org/2000/svg">
<path d="M18.7168 14.8083L17.6585 9.23329C17.5111 8.45384 17.1246 7.73966 16.5526 7.19005C15.9806 6.64044 15.2515 6.28272 14.4668 6.16663C15.0604 6.96204 15.4263 7.90406 15.5251 8.89163L15.9085 12.6833C15.9642 13.207 15.9124 13.7366 15.7563 14.2396C15.6001 14.7425 15.3428 15.2083 15.0001 15.6083C15.1106 16.1045 15.4137 16.5364 15.8427 16.8091C16.2717 17.0818 16.7915 17.173 17.2876 17.0625C17.7838 16.952 18.2158 16.6489 18.4885 16.2199C18.7612 15.7909 18.8523 15.2711 18.7418 14.775L18.7168 14.8083Z" fill="#0092CA" stroke="#0092CA" stroke-linecap="round" stroke-linejoin="round"/>
<path d="M4.09148 12.6833L4.47482 8.89163C4.57368 7.90406 4.93954 6.96204 5.53315 6.16663C4.74843 6.28272 4.01939 6.64044 3.44738 7.19005C2.87537 7.73966 2.48882 8.45384 2.34148 9.23329L1.28315 14.8083C1.17264 15.3045 1.26377 15.8242 1.53648 16.2532C1.80919 16.6822 2.24114 16.9853 2.73732 17.0958C3.23349 17.2063 3.75324 17.1152 4.18223 16.8425C4.61122 16.5698 4.91431 16.1378 5.02482 15.6416C4.67344 15.2397 4.40911 14.7693 4.24848 14.2602C4.08785 13.751 4.03439 13.2141 4.09148 12.6833Z" fill="#0092CA" stroke="#0092CA" stroke-linecap="round" stroke-linejoin="round"/>
<path d="M12.0168 16.95H7.98351C7.4393 16.9525 6.90062 16.8409 6.40224 16.6223C5.90386 16.4037 5.45686 16.083 5.09012 15.6809C4.72338 15.2788 4.44505 14.8043 4.2731 14.288C4.10114 13.7716 4.0394 13.225 4.09184 12.6833L4.47518 8.89163C4.60801 7.51984 5.248 6.24699 6.26988 5.32221C7.29176 4.39743 8.62198 3.88729 10.0002 3.89163C11.3784 3.88729 12.7086 4.39743 13.7305 5.32221C14.7524 6.24699 15.3923 7.51984 15.5252 8.89163L15.9085 12.6833C15.961 13.225 15.8992 13.7716 15.7273 14.288C15.5553 14.8043 15.277 15.2788 14.9102 15.6809C14.5435 16.083 14.0965 16.4037 13.5981 16.6223C13.0997 16.8409 12.5611 16.9525 12.0168 16.95Z" stroke="#0092CA" stroke-linecap="round" stroke-linejoin="round"/>
<path d="M9.99977 13.95L8.80811 12.6083C8.80811 12.332 8.91785 12.0671 9.1132 11.8717C9.30855 11.6764 9.5735 11.5667 9.84977 11.5667H10.1498C10.426 11.5667 10.691 11.6764 10.8863 11.8717C11.0817 12.0671 11.1914 12.332 11.1914 12.6083L9.99977 13.95Z" fill="#0092CA" stroke="#0092CA" stroke-linecap="round" stroke-linejoin="round"/>
<path d="M10 13.95V16.95" stroke="#0092CA" stroke-linecap="round" stroke-linejoin="round"/>
<path d="M7.375 8.94995V9.64995" stroke="#0092CA" stroke-width="2" stroke-linecap="round" stroke-linejoin="round"/>
<path d="M12.625 8.94995V9.64995" stroke="#0092CA" stroke-width="2" stroke-linecap="round" stroke-linejoin="round"/>
</svg>
