<svg width="18" height="14" viewBox="0 0 18 14" fill="none" xmlns="http://www.w3.org/2000/svg">
<path d="M12.1676 11.9999H5.83244C5.16651 12.0031 4.51815 11.8486 3.9903 11.561C3.46245 11.2735 3.08536 10.8693 2.91889 10.4126L2 8H16L15.0811 10.4444C14.9062 10.8951 14.5255 11.2922 13.9985 11.5736C13.4714 11.855 12.8276 12.0049 12.1676 11.9999Z" fill="#8AD49F" stroke="#8AD49F" stroke-width="2" stroke-linecap="round" stroke-linejoin="round"/>
<path d="M3.5 7C3.192 6.72587 3 5.85406 3 5.46637C3 5.07869 3.17303 4.70688 3.48103 4.43275C3.78903 4.15861 4.20676 4.00461 4.64234 4.00461C4.7828 4.00484 4.92264 4.02121 5.05839 4.05333C4.95834 3.84028 4.90626 3.61183 4.90511 3.38092C4.92498 2.87592 5.16443 2.39753 5.57296 2.04664C5.98149 1.69575 6.52716 1.4998 7.09489 1.50011C7.49103 1.50105 7.87947 1.59762 8.21881 1.77953C8.55816 1.96144 8.83571 2.22187 9.0219 2.53309C9.20808 2.22187 9.48563 1.96144 9.82498 1.77953C10.1643 1.59762 10.5528 1.50105 10.9489 1.50011C11.5204 1.49471 12.0716 1.6884 12.4849 2.03982C12.8981 2.39124 13.1406 2.87253 13.1606 3.38092C13.1594 3.61183 13.1074 3.84028 13.0073 4.05333C13.136 4.02283 13.2683 4.00647 13.4015 4.00461L13.3577 3.99486C13.7932 3.99486 14.211 4.14887 14.519 4.423C14.827 4.69714 15 5.06894 15 5.45663C15 5.84431 14.808 6.72587 14.5 7" stroke="#8AD49F" stroke-width="2" stroke-linecap="round" stroke-linejoin="round"/>
<path d="M17 7.5L1 7.5" stroke="#8AD49F" stroke-width="2" stroke-linecap="round" stroke-linejoin="round"/>
</svg>
