<svg width="18" height="15" viewBox="0 0 18 15" fill="none" xmlns="http://www.w3.org/2000/svg">
<path d="M15.4375 1.46875C16.0625 2.03125 16.5312 2.6875 16.7812 3.46875C17.0312 4.28125 17.0625 5.0625 16.875 5.875C16.6875 6.6875 16.3125 7.375 15.75 7.9375L9.71875 14.1875C9.5 14.4062 9.25 14.5 9 14.5C8.71875 14.5 8.46875 14.4062 8.28125 14.1875L2.25 7.96875C1.65625 7.375 1.28125 6.6875 1.09375 5.875C0.90625 5.0625 0.96875 4.28125 1.21875 3.46875C1.46875 2.6875 1.90625 2.03125 2.5625 1.46875C3.125 1 3.75 0.6875 4.46875 0.5625C5.15625 0.4375 5.875 0.5 6.5625 0.71875C7.25 0.96875 7.84375 1.34375 8.375 1.875L9 2.5L9.625 1.875C10.125 1.34375 10.75 0.96875 11.4375 0.71875C12.125 0.5 12.8125 0.4375 13.5312 0.5625C14.2188 0.6875 14.875 1 15.4375 1.46875Z" fill="#FF6F61"/>
</svg>
