<svg width="35" height="35" viewBox="0 0 35 35" fill="none" xmlns="http://www.w3.org/2000/svg">
<g clip-path="url(#clip0_261_674)">
<path d="M31.0078 26.7738C30.9782 26.9897 31.065 27.3026 31.0137 27.5021C30.9999 27.5534 30.8835 27.5424 30.8717 27.5936C30.5403 28.9936 29.842 30.6718 28.5046 31.6326C28.0095 31.9876 27.2678 32.3939 26.6937 32.6318C26.3111 32.791 25.8002 32.9356 25.3918 33.0545C25.4273 33.3803 25.165 33.1936 24.9263 33.2449C24.6265 33.3089 24.0248 33.5816 23.7447 33.6438C21.6498 34.0995 19.2768 33.997 17.0379 34.2422C16.9018 34.2569 16.9708 34.3703 16.8328 34.3868C16.5605 34.4179 15.7222 34.4179 15.45 34.3868C15.3119 34.3703 15.3809 34.2587 15.2428 34.2422C14.1066 34.1087 12.6785 34.1251 11.4831 34.0464C10.0391 33.9531 8.50447 33.9403 7.07434 33.7847C6.93823 33.7683 7.00727 33.6548 6.86919 33.6402C6.6167 33.609 6.2419 33.6951 6.01111 33.6438C5.95588 33.631 5.96574 33.5212 5.91248 33.5121C5.36213 33.4004 4.75654 33.2741 4.24958 32.9887C3.49605 32.5622 2.0245 30.8548 1.7365 30.0935C1.35579 29.0815 1.48204 27.0904 1.89628 26.0893C2.07973 25.6501 2.27896 25.2017 2.47031 24.779C2.61036 24.4697 2.87469 23.6883 3.068 23.4375C3.09759 23.3991 3.33036 23.357 3.40926 23.2381C3.62822 22.9087 3.71698 22.6964 4.04049 22.4182C4.0898 22.3779 4.17068 22.2828 4.21802 22.2645C4.56323 22.1327 4.42515 22.3121 4.53561 22.3743C4.60268 22.4127 4.72103 22.3688 4.7881 22.4036C4.8315 22.4273 5.29111 23.0496 5.40355 23.1118C5.4647 23.1466 5.57911 23.1063 5.64618 23.1502C5.74678 23.2161 6.02886 23.4979 6.05451 23.5089C6.44903 23.6809 6.21231 23.6132 6.37209 23.7304C6.46086 23.7962 7.20847 24.0433 7.3939 24.111C7.94228 24.3123 8.58337 24.5539 9.114 24.6673C9.26392 24.6985 9.45723 24.6344 9.59334 24.6673C9.62293 24.6747 9.78271 24.8064 10.0944 24.887C10.1989 24.9126 10.8893 25.1523 10.8696 24.9034C10.8676 24.887 10.6211 24.6747 10.6033 24.671C10.4731 24.6472 10.3252 24.6948 10.197 24.6692C10.1575 24.66 9.57559 24.4166 9.51838 24.4038C8.5814 24.1751 7.67203 23.6498 6.91456 23.0002C6.78239 22.8885 6.21626 22.5445 6.19456 22.5097C6.05451 22.2828 5.87106 21.8253 5.72706 21.6056C4.98733 20.4893 5.0544 18.0828 5.3858 16.7432C5.39763 16.6919 5.51402 16.7011 5.52782 16.6517C5.55347 16.5455 5.50613 16.4247 5.52191 16.3314C5.53769 16.2564 5.70339 16.3222 5.73495 16.2911C5.76256 16.2637 5.85725 15.6945 5.91248 15.5774C5.95588 15.4877 6.8179 14.7173 6.94809 14.5947C7.09998 14.4538 7.07631 14.2817 7.44321 14.1536C7.62666 14.0877 7.52409 14.4043 7.5517 14.5087C7.56946 14.5764 7.82195 15.1419 7.83773 15.2022C7.89691 15.4548 7.81603 15.4676 8.01132 15.7293C8.29537 16.1136 8.8832 16.5528 9.4158 16.4211C9.6249 16.0551 9.2797 16.0368 9.10611 15.8226C9.01734 15.7147 8.80233 15.3157 8.78063 15.1858C8.66228 14.4794 8.7471 12.6145 8.92266 11.9209C8.93055 11.8917 9.1929 11.5147 9.258 11.4158C9.80046 10.6051 10.5441 9.20879 11.4318 8.59571C12.0867 8.14369 12.9448 7.81977 13.6253 7.44643C13.6924 7.408 14.0475 7.1097 14.1185 7.18473C14.2526 7.45741 13.9824 7.60748 13.9764 7.6331C13.8502 8.16199 13.7141 8.47493 13.5504 8.91414C13.4162 9.2765 13.0414 10.2281 13.1124 10.5521C13.1736 10.8321 14.0928 10.7881 14.3138 10.5795C14.3414 10.5539 14.7122 10.0268 14.7438 9.97375C15.0239 9.49428 15.1699 8.92146 15.4026 8.40722C15.4007 8.39441 15.3987 8.38343 15.3987 8.37062C15.3967 8.32852 15.3987 8.28643 15.3987 8.24251C15.4302 8.1931 15.4598 8.1382 15.4796 8.07232C16.024 6.23859 15.7814 4.10656 14.9331 2.29297C16.5448 3.18421 18.1564 4.10656 19.5214 5.265C20.3854 5.99519 21.1626 6.80957 21.9299 7.62761C22.7939 8.55179 23.295 9.31493 23.512 10.4953C23.508 10.5246 23.506 10.5447 23.5041 10.5557C23.4646 10.7076 23.3995 10.9327 23.3443 11.156C22.8413 13.2038 21.8471 13.8645 20.1684 15.0266C19.9396 15.1858 19.5747 15.5683 19.336 15.6909C18.977 15.8757 18.4227 15.9562 18.0676 16.11C17.9295 16.1704 17.6593 16.3424 17.4896 16.4064C16.5546 16.7578 15.7991 17.0341 14.6649 17.1019C13.791 17.1549 12.8185 16.9939 11.9368 16.9774C11.3884 17.1147 11.0254 17.4917 11.7809 17.6948C12.8284 17.9766 14.9036 17.8741 15.9648 17.7058C17.3397 17.488 18.2215 17.3233 19.5115 16.6755C20.0343 16.4156 20.7582 15.8318 21.2139 15.5738C21.9023 15.1858 22.6164 14.6862 23.2141 14.1006C23.7901 13.5387 24.4687 12.8305 24.729 12.093C24.7882 11.9264 24.6699 11.4799 25.0072 11.6263C25.021 11.6318 25.1295 11.8075 25.1946 11.8459C25.3642 11.9502 25.5832 12.0161 25.7607 12.146C26.4097 12.6182 26.8022 13.5149 27.0508 14.2323C27.0705 14.289 27.1751 14.2854 27.1849 14.333C27.3269 14.9369 27.4749 17.2281 27.3309 17.79C27.2619 18.0553 27.2421 18.123 27.1928 18.4781C27.177 18.6025 27.0567 18.5659 27.0449 18.619C26.9285 19.1186 27.0429 18.9777 26.7411 19.4663C26.6799 19.567 26.6642 19.7481 26.6168 19.8067C26.53 19.9147 26.5734 19.7262 26.39 20.0611C26.0665 20.654 25.6207 21.2817 25.0506 21.8179C23.8295 22.9636 22.3698 24.0634 20.774 24.7955C20.3893 24.973 19.8705 25.1212 19.4622 25.2731C19.4543 25.5915 19.7167 25.5842 20.0086 25.5458C20.1447 25.5275 20.1053 25.4195 20.1605 25.4085C20.8963 25.2585 21.1803 25.209 21.9043 24.8741C21.9576 24.8504 22.0858 24.8961 22.1272 24.8613C22.1568 24.8357 22.1134 24.7039 22.141 24.6802C22.1745 24.649 22.3422 24.6802 22.4369 24.6509C23.9775 24.1659 26.4432 22.4841 27.2697 21.1628C27.6682 20.5259 27.972 20.008 28.1278 19.3565C28.1318 19.3345 28.3921 19.2247 28.2718 18.9758C28.5638 18.9155 28.4928 19.1113 28.5874 19.2174C29.0628 19.7536 29.5343 20.1873 29.7907 20.7986C29.8223 20.8755 30.0333 20.9615 30.055 21.0036C30.0945 21.0841 30.055 21.2104 30.0866 21.2451C30.1182 21.2762 30.2503 21.2122 30.2937 21.2982C30.5521 21.8106 30.5975 22.42 30.7277 22.9489C30.7395 23.0002 30.8559 22.991 30.8678 23.0404C31.1183 24.0287 30.9861 25.2292 31.1617 26.3071C31.2268 26.7006 31.0256 26.6548 31.0078 26.7756V26.7738Z" fill="#7C6A53"/>
<path d="M33.5903 32.0864C33.5055 32.3334 32.9315 32.1943 32.7243 32.2401C32.6671 32.2529 32.7046 32.3609 32.5725 32.3773C32.2351 32.4176 30.732 32.3023 30.5959 32.3901C30.5584 32.4158 30.6373 32.5384 30.4736 32.5073C30.4105 32.4945 30.4697 32.4011 30.3829 32.3718C30.2428 32.3243 29.9943 32.4158 30.1245 32.0552C30.1521 31.9766 30.5841 31.6691 30.6728 31.5648C31.0772 31.0908 31.237 30.6132 31.5467 30.1172C31.5802 30.0641 31.7736 29.9708 31.7874 29.9415C31.8288 29.8555 31.7953 29.7073 31.8091 29.6926C31.8288 29.6743 32.2785 29.6816 32.3673 29.7128C32.3831 29.7182 32.4837 29.8756 32.535 29.9104C32.6869 30.0147 33.5923 30.6607 33.61 30.7449C33.6475 30.9115 33.6396 31.9381 33.5903 32.0864Z" fill="#34231A"/>
<path d="M34.529 30.1153C34.3476 30 34.2548 30.0219 34.0023 29.7968C33.4934 29.3393 33.0634 28.8159 32.8898 28.1992C32.874 28.1425 32.7616 28.1534 32.7498 28.1059C32.7103 27.9503 32.7853 27.7453 32.7458 27.5934C32.734 27.5404 32.6038 27.5477 32.5998 27.5111C32.5841 27.3921 32.7261 27.275 32.7517 27.1158C32.7991 26.801 32.7971 25.6883 32.7537 25.3662C32.7359 25.2381 32.6136 25.3022 32.5979 25.1741C32.4992 24.4384 32.5525 23.7064 32.3829 23.0293C32.2803 22.623 32.0653 21.9202 31.9351 21.5689C31.6273 20.7453 30.6529 19.7425 30.0453 19.0013C29.6567 18.5273 29.5167 18.4614 29.351 17.8831C29.3352 17.8245 29.2247 17.8374 29.2109 17.7879C29.0945 17.3414 29.2563 16.3294 29.2129 15.7895C29.1616 15.1526 28.9032 14.611 28.7099 14.0985C28.128 12.5594 27.6131 11.983 26.1218 11.1558C25.895 11.0295 25.6642 10.9069 25.4275 10.7898C25.4157 10.7733 25.4038 10.7587 25.39 10.7422C25.3742 10.7239 25.3663 10.7147 25.3624 10.7111C25.3486 10.6946 25.3368 10.6781 25.3249 10.6617C25.2874 10.6141 25.2559 10.5647 25.2223 10.5153C25.1671 10.4274 25.1158 10.3359 25.0665 10.2444C25.0132 10.1419 24.9639 10.0394 24.9126 9.93696C24.8594 9.82716 24.8081 9.71919 24.7568 9.61121C24.7036 9.50324 24.6523 9.39343 24.599 9.28546C23.9165 7.41513 22.297 5.94193 20.7544 4.57853C18.6931 2.75579 16.0892 1.4784 13.6807 0.0985321C13.087 -0.24003 12.5366 0.363892 12.6845 0.850689C12.6451 1.03004 12.6767 1.22585 12.8246 1.40337C13.5209 2.23422 13.8977 3.4201 14.1877 4.42664C14.2685 4.70664 14.3257 4.98481 14.3632 5.26298C14.31 5.31788 14.2705 5.3801 14.2488 5.45147C14.2389 5.47343 14.2291 5.49539 14.2192 5.51736C14.1462 5.67291 14.0654 5.82664 13.9588 5.96755C13.7892 6.15239 13.5722 6.29147 13.3769 6.45252C13.3217 6.49644 13.2842 6.56415 13.2586 6.6337C12.6214 6.83683 11.4635 7.48834 10.998 7.73906C9.94856 8.30638 9.61124 8.62481 9.03919 9.57278C8.99185 9.64964 8.71766 9.80703 8.64073 9.91866C8.51054 10.1145 8.30736 10.7202 8.20478 10.8264C8.02528 11.013 8.11207 10.6672 7.98188 11.154C7.96807 11.2034 7.87339 11.2015 7.86353 11.2235C7.67416 11.6426 7.61301 12.069 7.41377 12.4643C7.28753 12.7113 7.03504 13.286 6.88117 13.4635C6.82397 13.5294 6.14145 13.7728 5.98167 13.8643C5.54967 14.1095 4.54365 15.1838 4.32667 15.5791C4.24579 15.7236 3.88481 16.5472 3.86903 16.6076C3.82563 16.7777 3.90848 17.0138 3.86508 17.1859C3.67571 17.938 3.64218 18.7085 3.64612 19.5466C3.65007 19.9364 3.79999 20.7563 3.72108 21.0693C3.70925 21.115 3.61259 21.1132 3.58695 21.1717C3.25555 21.9642 2.83341 22.0593 2.28109 22.6248C1.92405 22.9908 1.64591 23.3568 1.43682 23.7521C0.977205 24.6251 0.387399 25.9006 0.188167 26.7809C0.156606 26.9255 0.217756 27.0993 0.184222 27.2347C0.172387 27.2842 0.0560037 27.275 0.0421955 27.3262C-0.0189549 27.5623 -0.00711943 29.4327 0.0362776 29.7291C0.0421954 29.7804 0.320331 30.2397 0.328221 30.2727C0.5097 31.0376 1.19419 31.8794 1.77413 32.4559C2.94782 33.6253 3.77237 33.7937 5.32677 34.253C5.86923 34.4141 5.98167 34.3134 6.50835 34.3757C6.64644 34.3921 6.57739 34.5038 6.71548 34.5202C7.44336 34.6062 8.1535 34.544 8.96226 34.6465C9.54023 34.7179 10.0058 34.4617 10.4062 34.5111C11.2386 34.6136 12.0908 34.6776 12.9252 34.7874C14.1028 34.9393 15.3298 34.6685 16.4798 34.9155C17.2945 35.0912 18.3991 34.9082 19.2099 34.9119C19.8036 34.9137 21.4961 35.0912 21.9025 34.9393C21.9853 34.9082 21.9794 34.7966 22.0405 34.7838C22.437 34.7032 23.1136 34.8405 23.5476 34.7893C23.6798 34.7728 23.6423 34.663 23.6995 34.6502C23.952 34.5953 24.3544 34.6886 24.6286 34.6502C27.1338 34.3244 29.1912 33.3124 31.9173 33.3124C32.4341 33.3124 33.5388 32.9537 34.1148 32.7981C34.3969 32.7231 34.6257 32.4102 34.9196 32.3296C35.0557 31.7843 35.0735 30.4593 34.529 30.1134V30.1153ZM28.5047 31.6324C28.0096 31.9874 27.2679 32.3937 26.6939 32.6316C26.3112 32.7908 25.8003 32.9354 25.392 33.0544C25.4275 33.3801 25.1651 33.1934 24.9265 33.2447C24.6266 33.3087 24.025 33.5814 23.7449 33.6436C21.65 34.0993 19.2769 33.9968 17.0381 34.2421C16.9019 34.2567 16.971 34.3702 16.8329 34.3866C16.5607 34.4177 15.7223 34.4177 15.4501 34.3866C15.312 34.3702 15.3811 34.2585 15.243 34.2421C14.1068 34.1085 12.6786 34.1249 11.4832 34.0462C10.0393 33.9529 8.50462 33.9401 7.07449 33.7845C6.93838 33.7681 7.00742 33.6546 6.86934 33.64C6.61685 33.6089 6.24205 33.6949 6.01126 33.6436C5.95603 33.6308 5.96589 33.521 5.91263 33.5119C5.36228 33.4002 4.75669 33.274 4.24974 32.9885C3.49621 32.5621 2.02465 30.8546 1.73665 30.0933C1.35594 29.0813 1.48219 27.0902 1.89643 26.0891C2.07988 25.6499 2.27912 25.2015 2.47046 24.7788C2.61051 24.4695 2.87484 23.6881 3.06815 23.4374C3.09774 23.3989 3.33051 23.3568 3.40941 23.2379C3.62837 22.9085 3.71714 22.6962 4.04064 22.418C4.08996 22.3777 4.17083 22.2826 4.21817 22.2643C4.56338 22.1325 4.4253 22.3119 4.53576 22.3741C4.60283 22.4125 4.72119 22.3686 4.78825 22.4034C4.83165 22.4272 5.29127 23.0494 5.4037 23.1116C5.46485 23.1464 5.57926 23.1061 5.64633 23.15C5.74693 23.2159 6.02901 23.4978 6.05466 23.5087C6.44918 23.6808 6.21247 23.613 6.37225 23.7302C6.46101 23.796 7.20863 24.0431 7.39405 24.1108C7.94243 24.3121 8.58352 24.5537 9.11415 24.6672C9.26407 24.6983 9.45738 24.6342 9.59349 24.6672C9.62308 24.6745 9.78286 24.8062 10.0945 24.8868C10.1991 24.9124 10.8895 25.1521 10.8698 24.9032C10.8678 24.8868 10.6212 24.6745 10.6035 24.6708C10.4733 24.647 10.3253 24.6946 10.1971 24.669C10.1577 24.6598 9.57574 24.4164 9.51853 24.4036C8.58155 24.1749 7.67218 23.6496 6.91471 23C6.78255 22.8883 6.21641 22.5443 6.19471 22.5095C6.05466 22.2826 5.87121 21.8251 5.72721 21.6055C4.98749 20.4891 5.05455 18.0826 5.38595 16.743C5.39779 16.6917 5.51417 16.7009 5.52798 16.6515C5.55362 16.5453 5.50628 16.4245 5.52206 16.3312C5.53784 16.2562 5.70354 16.3221 5.7351 16.2909C5.76271 16.2635 5.8574 15.6943 5.91263 15.5772C5.95603 15.4876 6.81805 14.7171 6.94824 14.5945C7.10013 14.4536 7.07646 14.2815 7.44336 14.1534C7.62681 14.0876 7.52424 14.4042 7.55186 14.5085C7.56961 14.5762 7.8221 15.1417 7.83788 15.2021C7.89706 15.4546 7.81618 15.4674 8.01147 15.7291C8.29552 16.1134 8.88336 16.5527 9.41596 16.4209C9.62505 16.0549 9.27985 16.0366 9.10626 15.8225C9.01749 15.7145 8.80248 15.3155 8.78078 15.1856C8.66243 14.4792 8.74725 12.6143 8.92281 11.9208C8.9307 11.8915 9.19305 11.5145 9.25815 11.4157C9.80061 10.6049 10.5443 9.2086 11.4319 8.59553C12.0868 8.1435 12.9449 7.81958 13.6255 7.44624C13.6925 7.40781 14.0476 7.10951 14.1186 7.18455C14.2528 7.45722 13.9825 7.60729 13.9766 7.63291C13.8503 8.1618 13.7142 8.47474 13.5505 8.91396C13.4164 9.27631 13.0416 10.2279 13.1126 10.5519C13.1737 10.8319 14.093 10.7879 14.3139 10.5793C14.3415 10.5537 14.7124 10.0266 14.7439 9.97357C15.024 9.49409 15.17 8.92128 15.4028 8.40703C15.4008 8.39422 15.3988 8.38324 15.3988 8.37043C15.3969 8.32834 15.3988 8.28625 15.3988 8.24232C15.4304 8.19291 15.46 8.13801 15.4797 8.07213C16.0241 6.2384 15.7815 4.10638 14.9333 2.29278C16.5449 3.18402 18.1565 4.10638 19.5215 5.26481C20.3855 5.995 21.1627 6.80938 21.9301 7.62742C22.7941 8.5516 23.2951 9.31474 23.5121 10.4951C23.5082 10.5244 23.5062 10.5445 23.5042 10.5555C23.4648 10.7074 23.3997 10.9325 23.3444 11.1558C22.8414 13.2036 21.8472 13.8643 20.1686 15.0264C19.9397 15.1856 19.5748 15.5681 19.3361 15.6907C18.9771 15.8755 18.4228 15.956 18.0677 16.1098C17.9297 16.1702 17.6594 16.3422 17.4898 16.4062C16.5548 16.7576 15.7993 17.034 14.665 17.1017C13.7912 17.1547 12.8187 16.9937 11.9369 16.9772C11.3885 17.1145 11.0256 17.4915 11.7811 17.6946C12.8285 17.9764 14.9037 17.874 15.965 17.7056C17.3399 17.4878 18.2216 17.3231 19.5117 16.6753C20.0344 16.4154 20.7584 15.8316 21.214 15.5736C21.9025 15.1856 22.6165 14.686 23.2142 14.1004C23.7902 13.5385 24.4688 12.8303 24.7292 12.0928C24.7884 11.9262 24.67 11.4797 25.0073 11.6261C25.0211 11.6316 25.1296 11.8073 25.1947 11.8457C25.3644 11.95 25.5833 12.0159 25.7609 12.1459C26.4098 12.618 26.8024 13.5147 27.0509 14.2321C27.0707 14.2889 27.1752 14.2852 27.1851 14.3328C27.3271 14.9367 27.475 17.2279 27.331 17.7898C27.262 18.0551 27.2423 18.1228 27.193 18.4779C27.1772 18.6023 27.0569 18.5657 27.045 18.6188C26.9286 19.1184 27.043 18.9775 26.7412 19.4661C26.6801 19.5668 26.6643 19.7479 26.617 19.8065C26.5302 19.9145 26.5736 19.726 26.3901 20.0609C26.0666 20.6538 25.6208 21.2815 25.0507 21.8177C23.8297 22.9634 22.37 24.0632 20.7741 24.7953C20.3895 24.9728 19.8707 25.121 19.4624 25.2729C19.4545 25.5913 19.7168 25.584 20.0088 25.5456C20.1449 25.5273 20.1054 25.4193 20.1607 25.4083C20.8964 25.2583 21.1805 25.2089 21.9044 24.874C21.9577 24.8502 22.0859 24.8959 22.1273 24.8611C22.1569 24.8355 22.1135 24.7038 22.1412 24.68C22.1747 24.6489 22.3424 24.68 22.437 24.6507C23.9776 24.1657 26.4434 22.4839 27.2699 21.1626C27.6684 20.5257 27.9721 20.0078 28.128 19.3563C28.1319 19.3343 28.3923 19.2245 28.272 18.9757C28.5639 18.9153 28.4929 19.1111 28.5876 19.2172C29.063 19.7534 29.5344 20.1872 29.7909 20.7984C29.8224 20.8753 30.0335 20.9613 30.0552 21.0034C30.0946 21.0839 30.0552 21.2102 30.0868 21.2449C30.1183 21.276 30.2505 21.212 30.2939 21.298C30.5523 21.8104 30.5977 22.4198 30.7278 22.9487C30.7397 23 30.8561 22.9908 30.8679 23.0402C31.1184 24.0285 30.9863 25.229 31.1618 26.3069C31.2269 26.7004 31.0257 26.6546 31.008 26.7754C30.9784 26.9913 31.0652 27.3043 31.0139 27.5038C31.0001 27.555 30.8837 27.544 30.8718 27.5953C30.5405 28.9953 29.8422 30.6734 28.5047 31.6342V31.6324ZM33.5901 32.0862C33.5053 32.3333 32.9312 32.1942 32.7241 32.24C32.6669 32.2528 32.7044 32.3608 32.5722 32.3772C32.2349 32.4175 30.7318 32.3022 30.5957 32.39C30.5582 32.4157 30.6371 32.5383 30.4734 32.5072C30.4103 32.4944 30.4694 32.401 30.3826 32.3717C30.2426 32.3242 29.994 32.4157 30.1242 32.0551C30.1518 31.9764 30.5839 31.669 30.6726 31.5647C31.077 31.0907 31.2368 30.613 31.5465 30.1171C31.58 30.064 31.7733 29.9707 31.7871 29.9414C31.8286 29.8554 31.795 29.7072 31.8088 29.6925C31.8286 29.6742 32.2783 29.6815 32.3671 29.7127C32.3829 29.7181 32.4835 29.8755 32.5347 29.9103C32.6866 30.0146 33.5921 30.6606 33.6098 30.7448C33.6473 30.9113 33.6394 31.938 33.5901 32.0862Z" fill="black"/>
<path d="M13.385 6.45084C13.385 6.45084 13.3652 6.46731 13.3554 6.47646C13.3751 6.45999 13.3475 6.48012 13.3396 6.48561C13.3179 6.49842 13.2942 6.51123 13.2706 6.52221C13.2193 6.54783 13.168 6.57162 13.1206 6.60091C13.0023 6.67228 12.8997 6.76561 12.7893 6.84613C12.7123 6.90287 12.594 6.97973 12.4973 7.03646C12.3849 7.10234 12.2705 7.16273 12.1521 7.21764C12.0574 7.26156 12.0298 7.386 12.0811 7.46836C12.1383 7.55803 12.2547 7.57816 12.3513 7.53424C12.5999 7.41894 12.8326 7.27803 13.0516 7.11881C13.1502 7.04744 13.2449 6.96143 13.3396 6.90653C13.452 6.84247 13.5684 6.79672 13.6651 6.71071C13.74 6.64117 13.74 6.52221 13.6651 6.45267C13.5901 6.38313 13.4619 6.38313 13.3869 6.45267L13.385 6.45084Z" fill="black"/>
<path d="M25.112 14.2251C25.0604 15.2774 25.4469 16.3406 26.3385 16.8732C27.304 17.4497 28.1715 15.8703 27.206 15.2939C26.8797 15.098 26.8075 14.6972 26.8298 14.2269C26.8539 13.7328 26.4175 13.3119 25.9709 13.3119C25.4865 13.3119 25.136 13.731 25.112 14.2269V14.2251Z" fill="#4E3228"/>
<path d="M29.2934 5.72076C29.1405 5.83239 29.1508 5.81775 29.326 5.67683L29.4875 5.57984C29.7211 5.45357 30.0664 5.35657 30.3327 5.38768C30.7467 5.43527 30.9185 5.65487 31.0954 6.04651C31.5627 7.07317 31.585 8.16572 30.8343 9.00572C30.008 9.92991 29.034 10.3325 27.9809 10.8742C26.8282 11.469 26.1102 12.5103 25.4935 13.6706C24.6757 15.2115 26.9021 16.595 27.7181 15.0559C28.1922 14.161 28.6131 13.5571 29.5133 13.1398C30.4134 12.7226 31.1762 12.298 31.9235 11.6538C32.6072 11.0645 33.272 10.3398 33.6568 9.48886C34.1155 8.47134 34.0519 7.36781 33.8492 6.28991C33.5211 4.54585 32.5024 2.89879 30.7261 2.68102C29.1027 2.48154 26.4486 3.56128 26.7166 5.72259C26.8076 6.45644 27.244 7.09513 28.005 7.09513C28.6303 7.09513 29.3844 6.46193 29.2934 5.72259V5.72076Z" fill="#A78975"/>
<mask id="mask0_261_674" style="mask-type:luminance" maskUnits="userSpaceOnUse" x="25" y="2" width="10" height="14">
<path d="M29.2934 5.72076C29.1405 5.83239 29.1508 5.81775 29.326 5.67683L29.4875 5.57984C29.7211 5.45357 30.0664 5.35657 30.3327 5.38768C30.7467 5.43527 30.9185 5.65487 31.0954 6.04651C31.5627 7.07317 31.585 8.16572 30.8343 9.00572C30.008 9.92991 29.034 10.3325 27.9809 10.8742C26.8282 11.469 26.1102 12.5103 25.4935 13.6706C24.6757 15.2115 26.9021 16.595 27.7181 15.0559C28.1922 14.161 28.6131 13.5571 29.5133 13.1398C30.4134 12.7226 31.1762 12.298 31.9235 11.6538C32.6072 11.0645 33.272 10.3398 33.6568 9.48886C34.1155 8.47134 34.0519 7.36781 33.8492 6.28991C33.5211 4.54585 32.5024 2.89879 30.7261 2.68102C29.1027 2.48154 26.4486 3.56128 26.7166 5.72259C26.8076 6.45644 27.244 7.09513 28.005 7.09513C28.6303 7.09513 29.3844 6.46193 29.2934 5.72259V5.72076Z" fill="white"/>
</mask>
<g mask="url(#mask0_261_674)">
<path d="M25.5021 13.2277C26.5105 14.0823 27.6065 14.9351 28.9138 15.1456C29.1423 15.1822 29.3759 15.0834 29.4429 14.8253C29.4979 14.6094 29.3742 14.3001 29.1423 14.2617C27.9827 14.075 27.0121 13.343 26.1102 12.578C25.9281 12.4243 25.6807 12.3895 25.5021 12.578C25.3526 12.7372 25.32 13.0703 25.5021 13.2258V13.2277Z" fill="#A78975"/>
<path d="M26.8919 10.0086C26.4916 10.5942 26.2734 11.3061 26.2442 12.0271C26.2305 12.3803 26.2631 12.7592 26.3559 13.0995C26.4675 13.5058 26.7098 13.7748 27.0551 13.9725C28.4242 14.7594 29.9737 14.2415 31.3274 13.7016C31.5439 13.6156 31.6933 13.3924 31.628 13.138C31.5714 12.9165 31.3188 12.7317 31.0989 12.8177C30.0339 13.2423 28.7901 13.762 27.6649 13.2716C27.4691 13.1874 27.2475 13.0831 27.1839 12.8543C27.11 12.5853 27.0911 12.3035 27.1014 12.0253C27.1238 11.4561 27.3196 10.9254 27.6323 10.4679C27.768 10.2684 27.6649 9.95733 27.4777 9.84203C27.2612 9.70661 27.0276 9.80543 26.8901 10.0067L26.8919 10.0086Z" fill="#7C6A53"/>
<path d="M28.4999 9.13557C28.2251 9.78341 27.9451 10.4532 27.9468 11.1798C27.9485 11.9063 28.2216 12.5377 28.7645 12.9531C29.2507 13.3246 29.888 13.4564 30.4772 13.4545C31.1523 13.4545 31.8103 13.2679 32.4064 12.9348C32.896 12.6621 32.4631 11.8715 31.9735 12.1442C31.1919 12.5798 30.0701 12.7554 29.2902 12.2302C28.4209 11.6428 28.9174 10.3654 29.2421 9.59857C29.3365 9.37348 29.3022 9.10629 29.0875 8.97269C28.9036 8.8574 28.5961 8.91047 28.4999 9.1374V9.13557Z" fill="#7C6A53"/>
<path d="M29.7264 8.42187C29.7676 9.08252 29.6628 9.74867 29.7968 10.402C29.9308 11.0553 30.3551 11.5915 30.91 11.8917C32.0678 12.5194 33.5297 12.2101 34.3406 11.1176C34.4849 10.9236 34.5175 10.66 34.3406 10.4697C34.1911 10.3105 33.8785 10.2739 33.7324 10.4697C33.1518 11.253 32.1365 11.5641 31.2879 11.07C30.8979 10.843 30.6574 10.4935 30.599 10.0195C30.5338 9.49063 30.6145 8.95076 30.5819 8.42004C30.5664 8.17298 30.3946 7.96252 30.1524 7.96252C29.9325 7.96252 29.7075 8.17298 29.7229 8.42004L29.7264 8.42187Z" fill="#7C6A53"/>
<path d="M30.4221 7.52148C30.3722 8.21325 30.4255 8.91416 30.9357 9.41377C31.3995 9.86763 32.0472 10.0708 32.6708 10.036C34.0124 9.96279 35.0414 9.00201 35.8797 7.97168C36.0309 7.78501 36.0515 7.50867 35.8797 7.32384C35.7251 7.15913 35.4245 7.13534 35.2716 7.32384C34.6274 8.11625 33.8664 8.94527 32.8443 9.10449C32.4234 9.17037 31.9424 9.10449 31.5971 8.81717C31.2088 8.49508 31.2484 7.9973 31.281 7.52331C31.2982 7.27625 31.0714 7.0658 30.8515 7.0658C30.6041 7.0658 30.4392 7.27625 30.4221 7.52331V7.52148Z" fill="#7C6A53"/>
<path d="M30.6195 7.46293C31.5265 7.98267 32.8046 7.64044 33.6017 7.03286C34.3988 6.42528 34.9365 5.44802 35.0602 4.37378C35.0877 4.12855 34.842 3.91626 34.6307 3.91626C34.3748 3.91626 34.2287 4.12672 34.2012 4.37378C34.1171 5.10214 33.7254 5.81221 33.1688 6.24227C32.8579 6.48201 32.5091 6.64489 32.1329 6.7309C31.7962 6.80776 31.3668 6.85168 31.0524 6.67234C30.5662 6.39417 30.1316 7.18293 30.6195 7.46293Z" fill="#7C6A53"/>
<path d="M30.4992 6.59916C31.5866 6.66138 32.1501 5.32177 32.4198 4.40857C32.7479 3.29589 32.9351 2.10269 32.4335 1.01563C32.3304 0.79419 32.0367 0.733798 31.846 0.850922C31.633 0.982687 31.59 1.25354 31.6914 1.4768C32.0607 2.27654 31.8615 3.20988 31.633 4.01877C31.5265 4.39576 31.4079 4.76909 31.2138 5.10582C31.0575 5.37667 30.8273 5.70243 30.4992 5.68412C29.946 5.65301 29.9477 6.56805 30.4992 6.59916Z" fill="#7C6A53"/>
</g>
<path d="M13.9389 28.5051C14.0866 28.4941 14.2344 28.4831 14.3838 28.4813C14.4577 28.4813 14.5315 28.4813 14.6054 28.4831C14.6415 28.4831 14.6793 28.4868 14.7154 28.4905C14.7377 28.4923 14.8476 28.5069 14.7463 28.4905C14.8184 28.5014 14.8889 28.5161 14.9593 28.5362C14.9937 28.5454 15.0297 28.5563 15.0641 28.5691C15.0744 28.5728 15.1689 28.6094 15.1156 28.5875C15.0624 28.5655 15.1637 28.6131 15.174 28.6186C15.2015 28.635 15.2307 28.6515 15.2565 28.668C15.2823 28.6844 15.3097 28.7064 15.3355 28.7247C15.3613 28.7448 15.3527 28.7375 15.3115 28.7046C15.3235 28.7156 15.3355 28.7265 15.3475 28.7375C15.3922 28.7778 15.4334 28.8217 15.4729 28.8675C15.5039 28.9041 15.5348 28.9352 15.4867 28.8803C15.5073 28.9059 15.5245 28.9352 15.5417 28.9644C15.576 29.0212 15.6069 29.0816 15.6344 29.142C15.6808 29.2426 15.6087 29.0505 15.6396 29.1584C15.6499 29.195 15.6619 29.2316 15.6722 29.2682C15.6825 29.3048 15.6894 29.3433 15.6963 29.3799C15.7169 29.4769 15.6963 29.303 15.6997 29.411C15.7014 29.4878 15.7066 29.5647 15.6997 29.6416L15.6963 29.68C15.6911 29.7331 15.6911 29.7312 15.6963 29.6727C15.6997 29.7001 15.6842 29.7404 15.6774 29.766C15.6688 29.8026 15.6585 29.841 15.6482 29.8776C15.6413 29.8996 15.5915 30.0259 15.6327 29.9289C15.5417 30.1467 15.5657 30.4303 15.7873 30.5548C15.9746 30.6609 16.2769 30.6243 16.3748 30.3901C16.5483 29.9765 16.605 29.5446 16.514 29.098C16.4401 28.7375 16.2494 28.3898 15.9986 28.1354C15.7341 27.8701 15.3991 27.6889 15.0418 27.6193C14.6844 27.5498 14.3065 27.5608 13.9337 27.5882C13.7104 27.6047 13.494 27.7877 13.5043 28.0458C13.5146 28.28 13.6932 28.5216 13.9337 28.5033L13.9389 28.5051Z" fill="#4E3228"/>
<path d="M3.54201 32.7618C3.61588 32.4946 4.35457 32.1688 4.59335 32.0188C5.04172 31.7369 5.49695 31.4661 5.99342 31.2941C7.08084 30.9171 8.22494 31.0104 9.34671 31.1294C11.269 31.3343 14.289 32.0462 15.6891 30.1484C16.122 29.561 16.2165 28.7814 15.6891 28.2067C15.2476 27.7254 14.2959 27.6248 13.8664 28.2067C13.2703 29.0138 11.5456 28.6295 10.7073 28.5398C9.46181 28.408 8.20948 28.1921 6.95543 28.3147C5.72715 28.4355 4.61912 28.8473 3.54545 29.4896C2.47178 30.132 1.40841 30.7524 1.05625 32.0298C0.588984 33.7281 3.07475 34.4546 3.54029 32.7599L3.54201 32.7618Z" fill="#A78975"/>
<mask id="mask1_261_674" style="mask-type:luminance" maskUnits="userSpaceOnUse" x="0" y="27" width="17" height="7">
<path d="M3.54201 32.7618C3.61588 32.4946 4.35457 32.1688 4.59335 32.0188C5.04172 31.7369 5.49695 31.4661 5.99342 31.2941C7.08084 30.9171 8.22494 31.0104 9.34671 31.1294C11.269 31.3343 14.289 32.0462 15.6891 30.1484C16.122 29.561 16.2165 28.7814 15.6891 28.2067C15.2476 27.7254 14.2959 27.6248 13.8664 28.2067C13.2703 29.0138 11.5456 28.6295 10.7073 28.5398C9.46181 28.408 8.20948 28.1921 6.95543 28.3147C5.72715 28.4355 4.61912 28.8473 3.54545 29.4896C2.47178 30.132 1.40841 30.7524 1.05625 32.0298C0.588984 33.7281 3.07475 34.4546 3.54029 32.7599L3.54201 32.7618Z" fill="white"/>
</mask>
<g mask="url(#mask1_261_674)">
<path d="M2.24884 29.2938C2.17497 30.2326 2.17154 31.3032 2.85697 32.0096C3.21429 32.3775 3.6867 32.6026 4.15397 32.7691C4.65387 32.9466 5.18641 33.0308 5.71208 33.0326C5.94399 33.0326 6.14155 32.8222 6.14155 32.5751C6.14155 32.3281 5.94571 32.1176 5.71208 32.1176C5.28261 32.1176 4.87547 32.0517 4.46318 31.9145C4.1093 31.7974 3.71934 31.6253 3.4651 31.3636C3.36031 31.2557 3.26582 31.1111 3.21085 30.972C3.19711 30.9372 3.16103 30.8164 3.14385 30.7487C3.13183 30.7011 3.12152 30.6517 3.11293 30.6041C3.11293 30.6041 3.08888 30.4559 3.09919 30.5273C3.04422 30.1228 3.07857 29.7019 3.1095 29.2975C3.12839 29.0504 2.8982 28.84 2.68003 28.84C2.43094 28.84 2.26946 29.0504 2.25056 29.2975L2.24884 29.2938Z" fill="#7C6A53"/>
<path d="M5.07664 28.0493C4.85503 29.098 4.64889 30.2418 4.95467 31.2959C5.0921 31.7735 5.35493 32.1652 5.74833 32.4378C6.09877 32.6812 6.51794 32.8002 6.9182 32.9082C7.45418 33.0509 7.68265 32.1688 7.14668 32.0261C6.84261 31.9456 6.52996 31.865 6.25682 31.6967C5.96993 31.5192 5.82563 31.252 5.74661 30.9152C5.5439 30.0514 5.72428 29.1401 5.90294 28.2909C6.02491 27.7181 5.19689 27.4729 5.07492 28.0475L5.07664 28.0493Z" fill="#7C6A53"/>
<path d="M8.98827 27.4088C8.47291 27.4143 7.98504 27.676 7.65349 28.0951C7.28758 28.5563 7.13297 29.1328 7.078 29.7239C7.02302 30.315 7.07284 30.8695 7.30647 31.3819C7.54011 31.8943 7.97645 32.2347 8.43512 32.469C8.6447 32.5769 8.89895 32.5294 9.02263 32.3043C9.13258 32.1048 9.0776 31.7864 8.86802 31.6784C8.56568 31.5228 8.26333 31.3307 8.09326 31.0104C7.90945 30.6664 7.90429 30.2454 7.92663 29.863C7.96614 29.2151 8.25474 28.3294 8.98827 28.322C9.54143 28.3165 9.54143 27.4015 8.98827 27.407V27.4088Z" fill="#7C6A53"/>
<path d="M11.4805 27.7016C11.1232 27.7437 10.9617 27.9926 10.8242 28.3183C10.7126 28.5819 10.625 28.8545 10.5734 29.14C10.4652 29.7311 10.4772 30.3497 10.6336 30.9317C10.7899 31.5136 11.0854 32.0498 11.5904 32.3445C12.0611 32.6208 12.6074 32.6684 13.1331 32.6995C13.365 32.7123 13.5625 32.4799 13.5625 32.242C13.5625 31.9821 13.365 31.7973 13.1331 31.7845C12.7981 31.7643 12.4408 31.7497 12.1264 31.6106C11.7897 31.4606 11.5973 31.1476 11.4891 30.7871C11.3705 30.3918 11.3327 29.9782 11.3757 29.5664C11.3963 29.3706 11.441 29.1766 11.4959 28.99C11.5234 28.8985 11.5543 28.807 11.5921 28.7191C11.6093 28.6789 11.6282 28.6368 11.6488 28.5965C11.6609 28.5691 11.6763 28.5416 11.6918 28.5142C11.7193 28.4684 11.7055 28.483 11.654 28.5599L11.4375 28.6221L11.4822 28.6166C11.7124 28.5892 11.9117 28.4263 11.9117 28.1591C11.9117 27.9322 11.7141 27.6742 11.4822 27.7016H11.4805Z" fill="#7C6A53"/>
</g>
</g>
<defs>
<clipPath id="clip0_261_674">
<rect width="35" height="35" fill="white"/>
</clipPath>
</defs>
</svg>
