<svg width="16" height="17" viewBox="0 0 16 17" fill="none" xmlns="http://www.w3.org/2000/svg">
<path d="M11.9998 10.5C12.1496 10.1386 12.8201 9.06455 12.82 8.67333C12.825 7.99506 12.6717 7.35537 12.2511 6.82324C11.8305 6.29111 11.1609 6.15172 10.4998 6C10.4949 5.5836 10.422 4.9492 10.1483 4.63527C9.87473 4.32135 8.99982 4.5 8.49982 4C7.85247 3.35265 8.29314 1.5 8.29314 1.5C8.29314 1.5 6.11314 3.08667 5.62648 4.04667C5.42833 4.59697 5.93323 5.41892 5.99982 6C5.34445 6.15446 4.18696 6.29203 3.76841 6.81945C3.34985 7.34688 3.12135 8.00001 3.11981 8.67333C3.11275 9.07037 3.85196 10.1315 3.99982 10.5C3.48979 10.7364 2.49982 10.5 1.99982 11C1.69429 11.4719 1.61347 11.9379 1.60648 12.5C1.60472 12.8933 1.68068 13.2831 1.82998 13.647C1.97929 14.0109 2.19901 14.3418 2.47652 14.6205C2.75403 14.8993 3.08388 15.1205 3.44711 15.2714C3.81034 15.4223 4.1998 15.5 4.59314 15.5H11.4065C11.7998 15.5 12.1893 15.4223 12.5525 15.2714C12.9157 15.1205 13.2456 14.8993 13.5231 14.6205C13.8006 14.3418 14.0203 14.0109 14.1696 13.647C14.3189 13.2831 14.3949 12.8933 14.3931 12.5C14.3862 11.9379 14.2203 11.3893 13.9148 10.9174C13.6093 10.4455 12.5098 10.7364 11.9998 10.5Z" fill="#706155" stroke="#706155" stroke-linecap="round" stroke-linejoin="round"/>
<path d="M11.2548 6.31665C10.529 6.81859 9.88889 7 9 7C8.1932 7 7.5 7 6.5 6.5" stroke="#CAA384" stroke-linecap="round" stroke-linejoin="round"/>
</svg>
