<svg width="35" height="35" viewBox="0 0 35 35" fill="none" xmlns="http://www.w3.org/2000/svg">
<path d="M21.0729 21.9984C21.0729 21.9984 17.961 20.7139 14.4446 26.026C10.9264 31.338 4.90841 24.687 12.639 22.0968C20.3696 19.5067 10.0464 18.8829 11.6661 14.6867C13.2858 10.4905 12.3603 9.86495 10.6932 7.6333C9.02606 5.40165 12.1289 1.56216 14.8126 6.47178C17.4964 11.3814 20.8306 9.14976 20.9691 6.5614C21.1075 3.97304 19.1198 0.759112 23.886 0C23.886 0 27.9126 1.29506 24.8116 6.29431C21.7106 11.2936 24.6513 11.7434 28.8709 9.68044C36.2135 6.09223 37.7895 14.9714 28.9784 15.133C24.6476 15.2121 24.746 19.7615 25.9303 22.4254C26.9979 24.8293 29.9914 26.17 30.3467 30.1202C30.7986 35.1318 23.9899 36.9118 23.6109 29.1608C23.2957 22.7013 22.9842 23.1336 21.0729 21.9984Z" fill="#E60012"/>
<path d="M2.19547 31.273C3.408 31.273 4.39094 30.3249 4.39094 29.1555C4.39094 27.9861 3.408 27.0381 2.19547 27.0381C0.982946 27.0381 0 27.9861 0 29.1555C0 30.3249 0.982946 31.273 2.19547 31.273Z" fill="#E60012"/>
</svg>
