<svg width="32" height="12" viewBox="0 0 32 12" fill="none" xmlns="http://www.w3.org/2000/svg">
<g clip-path="url(#clip0_261_609)">
<path d="M3.60896 10.4669C3.60896 10.4669 4.42786 8.91286 7.20727 9.25289C7.20727 9.25289 9.54594 9.26956 7.97301 10.6835C7.97301 10.6835 2.5132 12.0403 3.60896 10.4669Z" fill="#995D29"/>
<path d="M30.9397 4.66964C29.7248 3.84876 28.3624 3.52654 27.1612 2.67563C25.1822 1.27367 24.2866 0.577753 21.9297 0.701624C21.805 0.708367 20.9334 0.842108 20.8862 0.899578C20.8239 0.887591 20.7622 0.872406 20.7005 0.856414L20.7 0.856387C20.6573 0.856692 20.616 0.8506 20.5748 0.840476C20.4955 0.836539 20.417 0.826984 20.3385 0.807728C20.2414 0.784321 20.1448 0.752852 20.0494 0.717405C19.9576 0.708802 19.8662 0.699419 19.7764 0.669906C19.6572 0.631657 19.5509 0.548785 19.4264 0.540183C19.4152 0.539628 19.4058 0.535928 19.397 0.531447C19.3071 0.513248 19.2175 0.491824 19.1298 0.462417C18.4808 0.185298 17.7964 0.0405926 17.1085 0.0622175C15.6783 0.106804 13.5593 0.319267 12.4526 1.88812C12.2482 2.17704 12.1364 2.60148 11.9811 2.83867C11.4475 3.65439 9.17861 3.70584 8.38838 4.01579C7.71401 4.28137 7.0694 4.86122 6.41775 5.22816C5.66073 5.65371 3.44977 6.34333 3.04081 7.20727C2.70811 7.91091 3.10169 8.20606 3.51689 8.28083C5.43533 8.625 7.99284 8.5224 9.96189 8.51346C11.9016 8.50467 13.8526 8.30084 15.7883 8.31772C17.6206 8.3335 19.2649 8.81359 21.1043 8.48218C23.3933 8.06962 25.6939 7.77888 27.9902 7.36831C28.2659 7.31976 28.6267 7.1356 28.8784 7.11819C29.7074 7.05912 30.4253 7.38976 31.335 6.99523C32.7251 6.39257 31.6491 5.14859 30.9397 4.66964ZM31.1897 6.09408C30.8729 6.01612 29.5915 6.74865 29.4058 6.53333C29.3695 6.49111 29.38 6.33241 29.333 6.3236C28.8917 6.43021 28.5197 6.69949 28.0724 6.80903C26.2293 7.25908 24.3524 7.3906 22.5034 7.61405C21.5789 7.72577 20.6123 8.15951 19.6924 8.19063C19.3134 8.20334 18.975 8.075 18.6345 8.05486C14.6985 7.81584 10.7721 8.23118 6.83762 8.12236C5.76111 8.09317 4.68557 8.02281 3.61018 8.00338C3.22679 7.70711 3.48296 7.28741 3.75178 7.01059C3.99982 6.75456 5.87853 5.83506 6.15519 5.8197C6.25206 5.814 6.20818 5.96701 6.25734 5.98723C6.32788 6.01741 6.63575 6.0828 6.72281 6.09197C6.88264 6.10799 7.19569 6.01522 7.25087 6.03251C7.29555 6.04604 7.29302 6.19383 7.33201 6.23618C7.48989 6.40971 8.03353 6.33728 8.25624 6.40895C8.37544 6.448 8.35137 6.59957 8.41614 6.66017C8.66708 6.89409 8.93538 6.59542 9.14336 6.64131C9.49915 6.71959 9.61267 6.70098 9.94405 6.73359C10.0943 6.74833 10.2122 6.91178 10.3627 6.92088C10.6011 6.93594 10.9133 6.67582 11.1281 6.6396C11.3014 6.61022 11.9797 6.83383 11.9104 6.39151C11.867 6.11535 11.4285 6.33849 11.2988 6.32881C11.1345 6.31662 11.0777 6.17074 10.9391 6.13637C10.7804 6.09698 10.5353 6.20686 10.4599 6.17887C10.3996 6.15728 10.3652 6.00039 10.294 5.9621C10.166 5.89513 9.99973 5.9774 9.88957 5.92829C9.84049 5.90645 9.84528 5.76686 9.80667 5.72776C9.53316 5.45393 9.16945 5.85778 8.8946 5.55721C8.83589 5.49287 8.86258 5.34224 8.73658 5.30042C8.50662 5.22435 8.19656 5.46113 7.95658 5.42578C8.01578 5.13613 8.59339 5.01366 8.61992 4.97375C8.64583 4.93543 8.52696 4.67493 8.63572 4.61244C9.21418 4.4407 9.78145 4.19324 10.3605 4.03124C10.5678 3.97282 10.7958 4.02375 11.0191 3.92087C11.2141 3.83194 12.4382 3.09172 12.543 2.9587C12.8504 2.56984 13.0457 2.06467 13.4543 1.65981C14.3417 0.780822 15.9898 0.625005 17.0313 0.543339C17.6784 0.493019 18.3202 0.51841 18.9516 0.698473C18.9537 0.698579 18.9563 0.700324 18.9584 0.701236C19.0019 0.717942 19.046 0.732256 19.0895 0.747349C19.1772 0.777563 19.2654 0.80619 19.3539 0.82998C19.4827 0.846076 19.609 0.892758 19.7386 0.904849C19.7519 0.90551 19.7639 0.910956 19.7753 0.918793C19.7864 0.920155 19.7959 0.923855 19.8052 0.928362C19.8796 0.935287 19.9532 0.947829 20.0259 0.977302C20.1299 1.02046 20.2354 1.05721 20.341 1.08994C20.5639 1.15839 20.7897 1.2092 21.0151 1.25999C21.0177 1.26012 21.0198 1.26184 21.0224 1.26278C21.2183 1.262 21.4141 1.26363 21.6094 1.27333C21.6126 1.27349 21.6153 1.27443 21.6184 1.27459C21.9213 1.2484 22.2243 1.20605 22.3316 1.20653C22.8929 1.20772 23.469 1.22419 24.0023 1.45515C23.9436 1.67047 23.8535 1.75491 23.7463 1.77545C23.7418 1.77927 23.7374 1.78228 23.7325 1.78446C23.6959 1.80124 23.6584 1.81473 23.6219 1.8307C23.605 1.83794 23.588 1.84599 23.5716 1.85407L23.5711 1.85404C23.5711 1.85404 23.5672 1.85708 23.565 1.85859C23.5567 1.86384 23.549 1.86911 23.5412 1.87519C23.5346 1.88052 23.5279 1.88665 23.5217 1.89201C23.52 1.89434 23.5189 1.8959 23.5172 1.89744C23.5047 1.91298 23.4927 1.92936 23.4806 1.94574C23.4726 1.95746 23.4641 1.96754 23.4561 1.97846C23.4338 2.02909 23.406 2.07297 23.3685 2.10748C23.2919 2.17804 23.1984 2.19118 23.112 2.19012C22.9338 2.18936 22.7447 2.12905 22.5707 2.23681C22.465 2.30188 22.3725 2.42499 22.2801 2.52386C22.1809 2.62967 22.0802 2.73378 21.9694 2.80587C21.7262 2.96354 21.4785 2.92134 21.2306 2.86377C21.0101 2.81241 20.7882 2.76664 20.5653 2.74264C20.4438 2.76086 20.2945 2.68232 20.1882 2.71746C20.1268 2.73866 20.1229 2.92437 20.0539 2.95004C19.9854 2.97493 19.8884 2.86584 19.8008 2.86716C19.569 2.8702 19.4584 3.17508 19.2879 3.224C19.12 3.27225 18.925 3.16962 18.7757 3.23091C18.7006 3.26193 18.6508 3.41465 18.5887 3.43016C18.5 3.45324 18.3194 3.30687 18.1289 3.36207C18.0352 3.38975 17.6597 3.78332 17.5676 3.89756C17.5118 3.96673 17.4495 3.96445 17.4669 4.11969C17.4864 4.12389 17.5066 4.12651 17.5273 4.12834C18.0251 4.11991 18.522 4.02011 19.0204 3.98989C19.1518 3.94307 19.2779 3.82243 19.3875 3.71067C19.4342 3.65156 19.4872 3.60489 19.533 3.54331C19.5381 3.53629 19.5437 3.5301 19.5498 3.52555C19.555 3.51934 19.5606 3.51396 19.5661 3.50939C19.6276 3.4203 19.6947 3.34846 19.7487 3.33659C19.8029 3.30857 19.8641 3.31161 19.9168 3.35787C20.012 3.43938 20.0538 3.59664 20.1186 3.7219C20.2553 3.98895 20.4886 3.98598 20.6964 3.98175C20.7087 3.98236 20.7192 3.9845 20.7286 3.98981C21.1065 3.99806 21.4855 3.96353 21.8612 4.01774C21.9258 4.02661 21.9914 4.03876 22.0564 4.05168C22.1124 4.05204 22.1679 4.05237 22.2239 4.05192C22.4566 3.98829 22.6891 3.91497 22.9243 3.83289C23.1888 3.74013 23.4597 3.64608 23.7302 3.64739C23.9938 3.64915 24.2496 3.74187 24.5076 3.80075C24.7445 3.85534 25.4388 3.98357 25.5198 3.44848C25.5475 3.26719 25.6285 3.1823 25.7183 3.16898C25.339 2.56497 24.8704 2.15778 24.3596 1.79457C24.3565 1.65297 24.5465 1.71656 24.602 1.7274C25.3791 1.8864 26.0914 2.80196 26.792 3.2546C26.9765 3.49492 26.6471 3.44382 26.669 3.64697C26.6906 3.84607 27.0459 3.78449 27.0803 3.95028C26.3615 3.69233 25.6279 5.02187 25.0033 5.2002C24.6969 5.28764 24.2419 5.15352 23.9045 5.17799C23.5736 5.20117 22.5695 5.44472 22.287 5.65297C22.2166 5.70525 22.1854 5.8605 22.1773 5.97002C22.393 5.90314 22.5188 6.27148 22.5681 6.3006C22.8738 6.4839 23.8366 6.02976 24.2317 5.9936C24.473 5.97082 24.7235 6.04226 24.9701 6.01813C25.2683 5.98928 25.6444 5.77598 25.9098 5.77299C26.1762 5.77005 26.7667 6.16227 26.9879 5.8451C27.0465 5.76072 27.0329 5.58303 27.0868 5.56227C27.2945 5.48367 27.9136 5.81669 27.8222 5.11948C28.3199 5.12478 28.8865 4.61056 29.3707 4.62813C29.6152 4.63784 30.0703 4.93039 30.2981 5.09204C30.4182 5.17721 31.2989 5.8934 31.1897 6.09408Z" fill="black"/>
<path d="M30.298 5.0919C30.0702 4.93026 29.6151 4.63771 29.3706 4.628C28.8864 4.61043 28.3198 5.12464 27.8222 5.11934C27.9135 5.81655 27.2945 5.48354 27.0867 5.56213C27.0328 5.5829 27.0464 5.76058 26.9878 5.84496C26.7666 6.16214 26.1761 5.76992 25.9097 5.77286C25.6443 5.77585 25.2682 5.98915 24.9701 6.018C24.7234 6.04212 24.4729 5.97069 24.2317 5.99347C23.8366 6.02963 22.8737 6.48376 22.568 6.30047C22.5187 6.27135 22.3929 5.903 22.1772 5.96989C22.1853 5.86037 22.2165 5.70511 22.2869 5.65284C22.5694 5.44459 23.5735 5.20103 23.9045 5.17786C24.2419 5.15338 24.6968 5.28751 25.0032 5.20007C25.6279 5.02174 26.3615 3.69219 27.0803 3.95014C27.0458 3.78436 26.6906 3.84593 26.669 3.64684C26.647 3.44368 26.9764 3.49479 26.792 3.25447C26.0913 2.80182 25.379 1.88627 24.6019 1.72726C24.5464 1.71643 24.3564 1.65284 24.3595 1.79444C24.8703 2.15765 25.3389 2.56483 25.7182 3.16884C25.6285 3.18217 25.5474 3.26705 25.5197 3.44834C25.4387 3.98343 24.7444 3.85521 24.5075 3.80061C24.2495 3.74173 23.9937 3.64902 23.7302 3.64725C23.4597 3.64595 23.1887 3.74 22.9242 3.83275C22.6891 3.91484 22.4565 3.98816 22.2239 4.05178C22.1678 4.05223 22.1123 4.0519 22.0563 4.05155C21.9913 4.03862 21.9258 4.02648 21.8611 4.01761C21.4854 3.9634 21.1064 3.99793 20.7285 3.98968C20.7192 3.98436 20.7086 3.98142 20.6963 3.98161C20.4885 3.98585 20.2552 3.98881 20.1185 3.72177C20.0537 3.59651 20.0119 3.43925 19.9167 3.35773C19.864 3.31147 19.8028 3.30844 19.7486 3.33646C19.6946 3.34833 19.6276 3.42017 19.5661 3.50925C19.5605 3.51383 19.5549 3.51921 19.5498 3.52542C19.5437 3.52997 19.538 3.53615 19.5329 3.54317C19.4871 3.60475 19.4341 3.65143 19.3874 3.71054C19.2778 3.82229 19.1518 3.94293 19.0203 3.98975C18.522 4.01998 18.025 4.11978 17.5272 4.12821C17.5065 4.12637 17.4864 4.12376 17.4668 4.11955C17.4495 3.96431 17.5118 3.9666 17.5675 3.89743C17.6596 3.78319 18.0351 3.38961 18.1288 3.36193C18.3194 3.30673 18.5 3.4531 18.5886 3.43002C18.6508 3.41452 18.7005 3.2618 18.7757 3.23078C18.9249 3.16948 19.12 3.27211 19.2878 3.22387C19.4583 3.17494 19.569 2.87007 19.8007 2.86702C19.8883 2.86571 19.9853 2.97479 20.0538 2.9499C20.1229 2.92423 20.1268 2.73853 20.1881 2.71732C20.2944 2.68219 20.4437 2.76073 20.5652 2.74251C20.7881 2.76651 21.01 2.81228 21.2305 2.86363C21.4785 2.92121 21.7261 2.9634 21.9693 2.80574C22.0801 2.73365 22.1808 2.62953 22.28 2.52372C22.3724 2.42485 22.465 2.30174 22.5707 2.23667C22.7446 2.12892 22.9338 2.18923 23.112 2.18999C23.1984 2.19104 23.2919 2.1779 23.3685 2.10735C23.4059 2.07284 23.4337 2.02895 23.456 1.97833C23.464 1.96741 23.4725 1.95733 23.4806 1.9456C23.4926 1.92922 23.5046 1.91285 23.5171 1.8973C23.5188 1.89577 23.5199 1.89421 23.5217 1.89187C23.5278 1.88652 23.5345 1.88038 23.5412 1.87506C23.5489 1.86898 23.5567 1.8637 23.5649 1.85846C23.5671 1.85695 23.5688 1.85542 23.571 1.85391L23.5716 1.85394C23.588 1.84586 23.6049 1.83781 23.6218 1.83057C23.6584 1.8146 23.6959 1.8011 23.7324 1.78433C23.7374 1.78215 23.7418 1.77913 23.7462 1.77531C23.8534 1.75477 23.9436 1.67034 24.0023 1.45502C23.4689 1.22405 22.8928 1.20758 22.3315 1.20639C22.2243 1.20592 21.9212 1.24826 21.6184 1.27445C21.6152 1.27429 21.6126 1.27335 21.6094 1.2732C21.414 1.2635 21.2182 1.26186 21.0224 1.26265C21.0197 1.26252 21.0176 1.2608 21.015 1.25986C20.7897 1.20907 20.5638 1.15825 20.3409 1.0898C20.2353 1.05708 20.1299 1.02032 20.0258 0.977168C19.9531 0.947695 19.8795 0.935153 19.8052 0.928228C19.7958 0.923721 19.7864 0.920021 19.7752 0.918659C19.7639 0.910822 19.7519 0.905376 19.7386 0.904715C19.609 0.892624 19.4827 0.845942 19.3538 0.829846C19.2653 0.806056 19.1771 0.777429 19.0895 0.747215C19.0459 0.732122 19.0018 0.717808 18.9583 0.701102C18.9562 0.700996 18.9536 0.699251 18.9515 0.698339C18.3201 0.518276 17.6783 0.492885 17.0312 0.543205C15.9897 0.624871 14.3416 0.780687 13.4543 1.65967C13.0457 2.06454 12.8504 2.5697 12.5429 2.95857C12.4381 3.09158 11.214 3.8318 11.0191 3.92074C10.7957 4.02361 10.5677 3.97269 10.3604 4.0311C9.78138 4.19311 9.21411 4.44057 8.63565 4.6123C8.52689 4.6748 8.64577 4.9353 8.61985 4.97362C8.59332 5.01352 8.01571 5.13599 7.95651 5.42565C8.1965 5.461 8.50656 5.22421 8.73651 5.30029C8.86251 5.3421 8.83583 5.49273 8.89453 5.55707C9.16938 5.85765 9.5331 5.45379 9.8066 5.72763C9.84522 5.76673 9.84042 5.90632 9.8895 5.92815C9.99966 5.97727 10.166 5.895 10.2939 5.96197C10.3651 6.00026 10.3995 6.15715 10.4598 6.17873C10.5353 6.20672 10.7803 6.09684 10.939 6.13624C11.0776 6.1706 11.1344 6.31648 11.2987 6.32868C11.4284 6.33835 11.867 6.11522 11.9104 6.39137C11.9797 6.8337 11.3013 6.61008 11.128 6.63947C10.9133 6.67569 10.601 6.9358 10.3627 6.92074C10.2121 6.91165 10.0943 6.74819 9.94398 6.73346C9.61261 6.70084 9.49909 6.71946 9.1433 6.64117C8.93532 6.59529 8.66701 6.89396 8.41607 6.66004C8.35131 6.59944 8.37537 6.44787 8.25618 6.40881C8.03347 6.33714 7.48983 6.40957 7.33194 6.23604C7.29296 6.19369 7.29549 6.04591 7.2508 6.03237C7.19563 6.01509 6.88258 6.10785 6.72274 6.09184C6.63568 6.08267 6.32781 6.01727 6.25727 5.9871C6.20811 5.96688 6.25199 5.81387 6.15512 5.81957C5.87847 5.83493 3.99976 6.75442 3.75171 7.01045C3.48289 7.28727 3.22672 7.70698 3.61011 8.00324C4.68551 8.02268 5.76104 8.09304 6.83755 8.12222C10.772 8.23104 14.6984 7.81571 18.6344 8.05473C18.9749 8.07487 19.3133 8.2032 19.6923 8.19049C20.6122 8.15937 21.5789 7.72563 22.5033 7.61391C24.3523 7.39047 26.2292 7.25894 28.0724 6.8089C28.5197 6.69936 28.8916 6.43008 29.3329 6.32347C29.38 6.33227 29.3694 6.49098 29.4057 6.53319C29.5914 6.74852 30.8728 6.01598 31.1896 6.09395C31.2989 5.89326 30.4181 5.17707 30.298 5.0919ZM13.5886 5.45708C13.0959 5.3429 13.2815 5.40789 12.8225 5.48452C12.4464 5.54749 12.2293 5.29908 11.8731 5.23856C11.6842 5.20655 11.483 5.38974 11.2829 5.14137C11.2312 5.07737 11.2169 4.90128 11.1623 4.88321C11.061 4.84989 10.7781 5.03387 10.6569 5.05615C10.213 5.1408 9.76318 5.17262 9.37455 4.80982C9.64114 4.72849 10.7625 4.03732 10.9415 4.21594C10.9729 4.24821 10.9648 4.45473 11.0797 4.5162C11.752 4.87207 12.4057 3.68081 12.957 3.99107C13.025 4.0292 13.0234 4.16975 13.0491 4.19851C13.0794 4.23316 13.5129 4.50928 13.5903 4.55272C13.7019 4.61645 13.8862 4.57953 13.9892 4.68649C14.0927 4.79508 14.038 4.98231 14.0927 5.00927C14.2959 5.10988 14.7663 4.86651 14.9003 5.28537C14.4868 5.32708 13.9949 5.54999 13.5886 5.45708ZM16.7708 4.16664C16.5021 4.10723 16.148 4.19957 15.8924 4.12304C15.8135 4.09972 15.672 3.94074 15.5581 3.90195C14.9326 3.68824 14.3086 3.47702 13.6581 3.44554C13.6494 3.32953 13.7644 3.34493 13.8217 3.33161C14.1395 3.2609 14.8749 3.4437 15.2124 3.54532C15.5678 3.65268 16.0867 4.01548 16.3837 4.06175C16.5352 4.08543 16.8275 3.87363 16.7708 4.16664ZM22.0193 7.01279C21.9929 7.04866 21.4139 7.22117 21.3385 7.22551C21.232 7.23073 21.1416 7.12844 21.0373 7.14267C20.8058 7.17401 20.5273 7.48349 20.2466 7.2481C20.1892 7.05935 20.527 7.0066 20.4257 6.85367C20.4093 6.82941 20.2523 6.92831 20.1826 6.92323C19.9923 6.90974 19.7259 6.70658 19.9647 6.46626C20.0876 6.34304 21.2644 6.00783 21.3174 6.09048L21.2488 6.40876C21.5579 6.25598 21.5437 6.73458 21.5838 6.75516C21.6625 6.79382 22.0072 6.72849 22.0312 6.77171C22.0216 6.8367 22.0301 6.99877 22.0193 7.01279Z" fill="#995D29"/>
<path d="M14.9006 5.28546C14.487 5.32717 13.9952 5.55008 13.5889 5.45717C13.0961 5.34299 13.2818 5.40798 12.8228 5.48461C12.4467 5.54758 12.2295 5.29917 11.8734 5.23865C11.6845 5.20665 11.4833 5.38983 11.2832 5.14146C11.2314 5.07747 11.2172 4.90137 11.1626 4.8833C11.0613 4.84998 10.7784 5.03396 10.6572 5.05624C10.2133 5.14089 9.76343 5.17272 9.3748 4.80991C9.64139 4.72858 10.7627 4.03741 10.9417 4.21603C10.9732 4.24831 10.9651 4.45482 11.08 4.51629C11.7523 4.87216 12.4059 3.6809 12.9572 3.99116C13.0252 4.02929 13.0236 4.16984 13.0494 4.1986C13.0797 4.23325 13.5132 4.50937 13.5905 4.55281C13.7021 4.61654 13.8864 4.57962 13.9895 4.68658C14.0929 4.79517 14.0383 4.9824 14.093 5.00936C14.2961 5.10997 14.7666 4.8666 14.9006 5.28546Z" fill="black"/>
<path d="M22.0195 7.01284C21.9932 7.04871 21.4142 7.22123 21.3387 7.22557C21.2323 7.23079 21.1418 7.1285 21.0376 7.14272C20.806 7.17407 20.5276 7.48355 20.2468 7.24815C20.1895 7.0594 20.5272 7.00666 20.426 6.85372C20.4096 6.82947 20.2526 6.92836 20.1829 6.92329C19.9925 6.9098 19.7262 6.70664 19.9649 6.46631C20.0879 6.34309 21.2647 6.00788 21.3177 6.09053L21.2491 6.40881C21.5581 6.25604 21.544 6.73463 21.5841 6.75521C21.6627 6.79387 22.0075 6.72854 22.0315 6.77177C22.0219 6.83676 22.0304 6.99883 22.0195 7.01284Z" fill="black"/>
<path d="M1.52823 7.68011C1.46283 7.64291 1.46443 7.50316 1.43553 7.47263C1.15377 7.18222 0.433971 7.2451 0.140073 7.54331C-0.1791 7.86693 -0.235054 8.34911 0.109186 8.63858C0.412399 8.89449 1.51038 9.03952 1.88299 9.00467C2.12585 8.98197 2.16967 8.87342 2.1895 8.49533C2.23623 7.60775 1.86556 7.87224 1.52823 7.68011ZM1.0633 8.23089C0.8095 8.07604 0.641737 8.60682 0.469129 8.37517C0.17743 7.98405 0.904352 7.37999 1.30254 7.61475C1.40104 7.67298 1.41418 8.0317 1.58389 8.02072L1.0633 8.23089Z" fill="black"/>
<path d="M1.584 8.02065L1.0634 8.23082C0.809603 8.07596 0.641841 8.60675 0.469232 8.3751C0.177533 7.98397 0.904456 7.37991 1.30264 7.61467C1.40114 7.67291 1.41429 8.03162 1.584 8.02065Z" fill="#995D29"/>
<path d="M8.21958 9.76054C8.14076 9.83261 8.04849 10.3906 7.82574 10.4919C6.75896 10.6967 5.68207 11.0515 4.60705 11.0781C4.28326 11.0863 3.57727 11.1935 3.76857 10.4465C3.90566 9.91012 5.8824 9.57421 5.89028 9.40487C5.90136 9.18153 5.08713 9.30842 4.96816 9.32919C4.59628 9.39236 3.38331 9.76861 3.18806 10.2511C2.93928 10.866 3.32618 11.2635 3.69287 11.348C4.40143 11.5116 5.45715 11.4113 6.19063 11.3095C6.61726 11.2506 7.98535 11.0284 8.31646 10.7975C8.50442 10.6662 8.64813 9.91033 8.53662 9.7488C8.50676 9.70529 8.27374 9.71231 8.22008 9.76138L8.21958 9.76054Z" fill="black"/>
<path d="M6.38604 9.9774C6.29878 10.0151 6.20897 10.1044 6.12049 10.1453C6.11801 10.1953 6.20333 10.4759 6.22219 10.4938C6.27306 10.544 6.91875 10.4799 7.02739 10.4522C7.32785 10.3766 7.49544 10.0535 7.7779 10.1039C7.47063 9.23106 7.19933 9.46088 6.63075 9.56279C6.63141 10.1407 6.60532 9.88159 6.38608 9.97659L6.38604 9.9774Z" fill="black"/>
<path d="M16.7711 4.16663C16.5025 4.10722 16.1483 4.19957 15.8928 4.12303C15.8139 4.09972 15.6724 3.94074 15.5585 3.90195C14.933 3.68823 14.309 3.47702 13.6584 3.44553C13.6498 3.32952 13.7648 3.34493 13.822 3.33161C14.1399 3.2609 14.8752 3.4437 15.2128 3.54532C15.5682 3.65268 16.087 4.01548 16.3841 4.06174C16.5356 4.08543 16.8278 3.87362 16.7711 4.16663Z" fill="black"/>
</g>
<defs>
<clipPath id="clip0_261_609">
<rect width="32" height="12" fill="white"/>
</clipPath>
</defs>
</svg>
