<svg width="284" height="347" viewBox="0 0 284 347" fill="none" xmlns="http://www.w3.org/2000/svg">
<g clip-path="url(#clip0_383_620)">
<path d="M176.428 79.7652C175.788 78.5093 174.399 77.2974 172.966 76.8346C172.305 76.6143 171.07 76.46 169.703 76.4821C168.336 76.4821 167.101 76.6363 166.44 76.8346C165.029 77.2974 163.618 78.5093 162.978 79.7652C162.361 80.9992 162.008 82.4094 161.986 83.8416C161.986 87.1248 163.728 88.6451 164.941 89.3502C165.779 89.835 167.432 90.4299 169.615 90.474C171.798 90.4299 173.562 89.813 174.399 89.3502C175.612 88.6672 177.376 87.1248 177.354 83.8416C177.354 82.4094 176.979 80.9771 176.362 79.7652H176.428Z" fill="#332A24"/>
<path d="M169.373 82.4973C170.359 82.4973 171.159 81.6983 171.159 80.7125C171.159 79.7268 170.359 78.9277 169.373 78.9277C168.386 78.9277 167.587 79.7268 167.587 80.7125C167.587 81.6983 168.386 82.4973 169.373 82.4973Z" fill="white"/>
<path d="M124.482 79.7652C123.843 78.5093 122.454 77.2974 121.021 76.8346C120.359 76.6143 119.125 76.46 117.758 76.4821C116.391 76.4821 115.156 76.6363 114.495 76.8346C113.084 77.2974 111.673 78.5093 111.033 79.7652C110.416 80.9992 110.063 82.4094 110.041 83.8416C110.041 87.1248 111.783 88.6451 112.995 89.3502C113.833 89.835 115.487 90.4299 117.67 90.474C119.852 90.4299 121.616 89.813 122.454 89.3502C123.667 88.6672 125.431 87.1248 125.408 83.8416C125.408 82.4094 125.034 80.9771 124.416 79.7652H124.482Z" fill="#332A24"/>
<path d="M117.185 82.4973C118.172 82.4973 118.971 81.6983 118.971 80.7125C118.971 79.7268 118.172 78.9277 117.185 78.9277C116.199 78.9277 115.399 79.7268 115.399 80.7125C115.399 81.6983 116.199 82.4973 117.185 82.4973Z" fill="white"/>
<path d="M193.647 108.652C189.678 107.352 185.489 106.691 181.234 106.691H106.447C102.214 106.691 98.0028 107.352 94.0342 108.652" fill="#F7E0B6"/>
<path d="M64.6885 271.862L44.5808 261.902C43.0374 261.131 41.6704 260.052 40.568 258.685L34.9238 251.789L17.7263 228.784C16.0066 226.471 15.1247 223.628 15.257 220.786L15.5436 214.22C15.5877 213.14 15.4995 212.082 15.257 211.025L13.0963 201.175C12.4569 198.267 12.8758 195.27 14.2869 192.758L19.7107 183.019C20.9674 180.749 22.9738 179.008 25.3549 178.083L30.3378 195.226C30.6905 196.482 31.2638 197.672 31.9914 198.729L38.8703 208.909C40.1271 210.782 41.8689 212.259 43.8973 213.184L70.2887 225.237C73.6841 226.779 76.2196 229.908 77.1015 233.61L82.5915 256.548C83.5396 260.47 82.5033 264.547 79.8575 267.367L77.8071 269.57C74.4558 273.162 69.1863 274.088 64.6885 271.862Z" fill="#5B5B5B"/>
<path d="M141.989 347.022C220.407 347.022 283.978 331.761 283.978 312.935C283.978 294.109 220.407 278.847 141.989 278.847C63.5706 278.847 0 294.109 0 312.935C0 331.761 63.5706 347.022 141.989 347.022Z" fill="#19363D"/>
<path d="M236.574 295.065C233.973 292.817 230.996 291.209 229.651 290.746C229.409 290.658 229.343 290.327 229.497 290.129L230.93 288.52C236.354 282.395 240.719 274.969 243.012 266.574C245.327 258.091 245.879 248.77 243.938 239.692C242.726 234.051 239.837 226.273 236.332 221.602C225.242 206.905 212.079 206.706 212.079 206.706C178.39 201.704 152.417 211.444 152.373 211.466H141.57H130.766C130.722 211.466 104.772 201.704 71.0602 206.706C71.0602 206.706 57.8975 206.905 46.8074 221.602C43.2797 226.251 40.3914 234.029 39.2008 239.692C37.2606 248.792 37.8118 258.091 40.1268 266.574C42.4419 275.057 46.7853 282.373 52.2091 288.52L53.6423 290.129C53.7966 290.349 53.7304 290.68 53.4879 290.746C52.165 291.209 49.1665 292.817 46.5649 295.065C46.1239 295.461 45.6829 295.946 45.264 296.497C43.5002 298.877 42.7726 302.05 42.971 305.179V305.377L42.9931 305.553C43.5002 312.803 49.2327 318.774 56.7069 319.567C73.2429 321.374 82.3487 318.972 87.3977 318.443C91.7412 317.981 117.229 315.248 127.238 314.169C128.583 314.014 129.906 313.948 131.251 313.948H141.614H151.976C153.321 313.948 154.644 314.014 155.989 314.169C165.999 315.248 191.464 318.003 195.83 318.443C200.879 318.972 209.962 321.374 226.52 319.567C233.973 318.752 239.727 312.803 240.234 305.553V305.377L240.256 305.179C240.433 302.05 239.727 298.855 237.963 296.497C237.544 295.946 237.103 295.461 236.663 295.065H236.574Z" fill="#494949"/>
<path d="M222.045 204.194C220.083 186.17 217.062 172.993 212.212 162.285C209.963 157.305 206.016 150.43 203.282 145.759C187.209 118.304 147.148 120.155 145.539 120.243C143.929 120.155 103.868 118.304 87.7952 145.759C85.0612 150.43 81.1146 157.305 78.8657 162.285C74.0152 172.993 67.5992 186.324 65.637 204.349C62.9251 229.314 73.0671 259.501 79.7918 276.556C86.0975 292.575 51.8129 320.515 145.936 314.852C227.756 321.396 204.98 292.575 211.308 276.556C218.033 259.523 224.779 229.159 222.067 204.194H222.045Z" fill="#383836"/>
<path d="M223.963 211.774C222.552 199.126 216.357 174.161 214.284 167.815C209.875 154.374 206.149 133.948 187.959 128.043C184.453 126.897 180.749 126.324 177.001 126.324H110.174C106.426 126.324 102.722 126.897 99.216 128.043C81.0264 133.948 76.727 154.374 72.3174 167.815C70.2449 174.139 63.0573 199.92 61.6682 212.589C58.9563 237.07 63.388 256.284 66.0117 265.362C67.7094 271.245 74.2356 293.831 73.1552 307.911C72.7584 313.133 70.9284 311.965 68.437 318.047C66.1881 323.555 65.8133 338.473 87.1557 339.707C106.382 340.831 111.651 335.983 114.495 332.127C116.7 329.13 118.442 321.991 115.311 313.53C112.577 306.192 114.429 277.107 112.533 256.438C112.136 252.23 113.15 252.582 114.782 254.323C121.529 260.537 130.524 263.181 142.65 263.181H143.466C155.593 263.181 164.588 260.537 171.335 254.323C172.944 252.582 173.959 252.23 173.584 256.438C171.666 277.107 173.518 306.192 170.806 313.53C167.675 321.969 169.417 329.108 171.622 332.127C174.444 335.983 179.735 340.808 198.961 339.707C220.303 338.473 219.929 323.555 217.68 318.047C215.188 311.965 213.38 313.133 212.961 307.911C211.881 293.831 218.385 271.267 220.105 265.362C222.729 256.284 226.764 236.255 224.052 211.774H223.963Z" fill="#5B5B5B"/>
<path d="M181.851 338.627L182.513 334.749C182.711 333.603 182.755 332.457 182.645 331.311L182.138 326.067C182.138 326.067 182.204 325.979 182.226 326.045L184.144 330.805C184.695 332.193 185.004 333.713 185.048 335.256L185.136 338.913C185.136 339.112 185.004 339.288 184.828 339.31C184.409 339.354 182.292 338.979 181.962 338.847C181.873 338.825 181.829 338.715 181.851 338.627Z" fill="#383836"/>
<path d="M193.559 339.619L194.265 335.454C194.463 334.242 194.529 332.986 194.419 331.774L193.978 326.156C193.978 326.156 194.044 326.067 194.066 326.133L195.941 331.223C196.492 332.722 196.778 334.33 196.8 335.983L196.867 339.795C196.867 340.015 194 340.015 193.67 339.883C193.581 339.861 193.537 339.751 193.559 339.663V339.619Z" fill="#383836"/>
<path d="M205.95 338.407L206.369 334.484C206.502 333.339 206.479 332.193 206.303 331.047L205.487 325.847C205.487 325.847 205.553 325.759 205.575 325.803L207.758 330.43C208.398 331.796 208.795 333.273 208.927 334.815L209.147 337.547C209.147 337.746 206.391 338.693 206.061 338.583C205.972 338.561 205.928 338.473 205.928 338.385L205.95 338.407Z" fill="#383836"/>
<path d="M103.229 338.715L102.567 334.837C102.369 333.691 102.325 332.546 102.435 331.4L102.942 326.156C102.942 326.156 102.876 326.067 102.854 326.133L100.936 330.893C100.384 332.281 100.076 333.802 100.032 335.344L99.9434 339.002C99.9434 339.2 100.076 339.376 100.252 339.398C100.671 339.442 102.788 339.068 103.118 338.936C103.206 338.914 103.251 338.803 103.229 338.715Z" fill="#383836"/>
<path d="M91.5435 339.728L90.838 335.564C90.6396 334.352 90.5734 333.096 90.6837 331.884L91.1246 326.265C91.1246 326.265 91.0585 326.177 91.0364 326.243L89.1623 331.333C88.6111 332.832 88.3245 334.44 88.3025 336.093L88.2363 339.905C88.2363 340.125 91.1026 340.125 91.4333 339.993C91.5215 339.971 91.5656 339.861 91.5435 339.773V339.728Z" fill="#383836"/>
<path d="M79.1306 338.516L78.7116 334.594C78.5794 333.449 78.6014 332.303 78.7778 331.157L79.5936 325.957C79.5936 325.957 79.5274 325.869 79.5054 325.913L77.3226 330.54C76.6832 331.906 76.2864 333.382 76.1541 334.925L75.9336 337.657C75.9336 337.855 78.6896 338.803 79.0203 338.693C79.1085 338.671 79.1526 338.583 79.1526 338.494L79.1306 338.516Z" fill="#383836"/>
<path d="M99.8113 160.5C122.388 177.444 134.228 174.558 146.421 174.558C157.379 174.558 173.187 170.085 190.517 160.103C200.548 154.33 204.649 144.459 210.205 130.995C210.801 129.563 215.762 125.178 215.232 123.702C211.683 113.522 207.075 104.444 200.394 96.8639C200.063 96.4893 199.667 96.291 199.248 96.291C181.256 96.4232 158.569 99.8606 149.706 101.337C147.192 101.756 144.657 101.756 142.165 101.337C133.324 99.8826 110.615 96.4232 92.6236 96.291C92.2047 96.291 91.8078 96.4893 91.4771 96.8639C87.3542 101.535 83.8485 107.11 80.9161 113.103C76.8152 121.521 77.5648 131.348 81.8422 139.677C85.2596 146.309 89.0959 152.479 99.8113 160.522V160.5Z" fill="#383836"/>
<path d="M132.575 13.5952L140.6 16.019L147.744 15.9089L155.791 14.4987L158.062 12.3833C158.062 12.3833 160.179 10.3562 162.273 9.87141C162.538 9.8053 162.516 9.54089 162.251 9.45275C160.664 8.87985 156.298 7.8883 148.008 9.91547C148.008 9.91547 146.421 3.92208 152.683 0.462655C152.969 0.308413 152.749 -0.066174 152.418 -7.03833e-05C147.964 0.881311 141.703 3.34918 139.63 9.51885C139.52 9.82734 139.189 10.0256 138.814 9.91547C136.543 9.21037 129.29 7.11709 125.718 7.86626C125.409 7.93236 125.409 8.30695 125.718 8.41712C127.57 8.96799 131.649 10.4884 132.575 13.5952Z" fill="#5B5B5B"/>
<path d="M217.107 104.774L214.747 83.4666C214.329 79.6987 214.064 75.9308 213.932 72.1409L213.513 59.7354C213.226 51.5826 210.602 43.8044 206.083 37.6788L196.492 30.0328C177.464 3.52529 148.163 14.8951 145.164 14.8951C142.165 14.8951 108.675 3.50325 89.6472 30.0328L82.195 37.6788C77.6752 43.8044 75.0514 51.5826 74.7648 59.7354L74.3459 72.1409C74.2136 75.9308 73.949 79.6987 73.5301 83.4666L71.171 104.774C70.0686 114.822 71.8324 125.134 76.8153 133.573C78.8658 137.055 81.3792 140.184 84.2455 142.806C90.4189 148.446 95.7104 152.016 110.174 157.657C114.716 159.42 131.45 162.394 143.4 162.394C154.446 162.394 170.541 160.037 178.082 157.657C192.81 153.03 197.859 148.469 204.01 142.806C206.898 140.161 209.39 137.055 211.44 133.573C216.423 125.134 218.209 114.8 217.085 104.774H217.107Z" fill="#5B5B5B"/>
<path d="M205.795 22.9157C207.89 23.8852 218.429 28.6226 225.506 33.8448C229.343 36.6873 235.185 42.1298 236.2 48.8944C236.927 53.7861 234.965 61.7846 233.135 66.7865C230.423 74.2562 226.807 80.4479 220.259 87.9176C220.259 87.9176 216.687 92.5448 212.3 92.7652C212.3 92.7652 211.903 92.7652 211.131 92.8313C208.485 92.9635 205.773 89.5041 204.517 87.4108C203.15 85.1412 202.136 82.6073 201.276 75.4901L199.887 64.6271C199.82 61.5422 197.66 52.9708 196.513 50.0622C194.397 44.7299 188.267 28.9091 188.047 22.5191C187.959 20.1393 189.083 19.6105 190.075 19.28C193.757 18.024 203.811 22.0123 205.818 22.9377L205.795 22.9157Z" fill="#494949"/>
<path d="M169.483 101.315C159.187 95.4756 147.148 94.9468 145.517 94.9468C143.885 94.9468 131.825 95.4536 121.551 101.315C121.551 101.315 133.104 97.1282 145.715 97.1282C158.327 97.1282 169.505 101.315 169.505 101.315H169.483Z" fill="#383836"/>
<path d="M80.3653 22.9157C78.2707 23.8852 67.7318 28.6226 60.6544 33.8448C56.818 36.6873 50.9753 42.1298 49.9611 48.8944C49.2335 53.7861 51.1958 61.7846 53.0258 66.7865C55.7377 74.2562 59.3536 80.4479 65.9018 87.9176C65.9018 87.9176 69.4736 92.5448 73.8611 92.7652C73.8611 92.7652 74.258 92.7652 75.0297 92.8313C77.6754 92.9635 80.3873 89.5041 81.6441 87.4108C83.011 85.1412 84.0252 82.6073 84.8851 75.4901L86.2741 64.6271C86.3403 61.5422 88.501 52.9708 89.6475 50.0622C91.7641 44.7299 97.8934 28.9091 98.1139 22.5191C98.2021 20.1393 97.0777 19.6105 96.0855 19.28C92.4035 18.024 82.3496 22.0123 80.3432 22.9377L80.3653 22.9157Z" fill="#494949"/>
<path d="M155.946 126.479L150.853 125.509C150.191 125.377 149.552 125.201 148.935 124.98L144.745 123.394C144.745 123.239 144.745 123.173 144.745 123.173L144.437 123.284L144.128 123.173C144.128 123.173 144.128 123.261 144.128 123.394L139.939 124.98C139.322 125.223 138.682 125.399 138.021 125.509L132.928 126.479C137.337 131.106 139.741 132.097 144.216 132.428C144.415 132.428 144.415 132.428 144.591 132.428C149.067 132.097 151.47 131.128 155.88 126.479H155.946Z" fill="#332A24"/>
<path d="M153.74 126.06L149.463 125.465C148.934 125.355 148.559 124.76 148.052 124.539L144.657 123.085C144.657 122.953 144.657 122.887 144.657 122.887L144.414 122.997L144.172 122.887C144.172 122.887 144.172 122.953 144.172 123.085L140.776 124.539C140.291 124.76 139.718 125.399 139.167 125.509L135.088 125.927C138.66 130.18 140.622 131.084 144.26 131.392C144.436 131.392 144.436 131.392 144.569 131.392C148.206 131.084 150.147 130.334 153.74 126.082V126.06Z" fill="#FCA1C4"/>
<path d="M151.955 103.452C150.588 102.571 148.03 102.351 146.774 102.262C145.34 102.174 143.18 102.174 141.747 102.262C140.49 102.351 137.932 102.549 136.565 103.452C134.713 104.664 133.942 106.912 134.405 109.71C134.868 112.508 138.395 115.197 140.755 116.144C140.777 116.144 140.799 116.144 140.821 116.166C143.003 117.048 145.495 117.048 147.678 116.166C147.7 116.166 147.722 116.166 147.744 116.144C150.103 115.175 153.653 112.486 154.094 109.71C154.535 106.934 153.785 104.664 151.933 103.452H151.955Z" fill="#332A24"/>
<path d="M140.38 104.157C140.38 104.157 137.91 104.355 137.139 105.325C136.367 106.294 136.786 106.955 138.461 106.581C140.137 106.206 142.628 104.884 143.224 105.193C143.819 105.501 145.649 104.223 144.48 103.981C143.312 103.738 140.38 104.157 140.38 104.157Z" fill="white"/>
<path d="M145.274 115.902H143.62V122.292H145.274V115.902Z" fill="#332A24"/>
<path d="M153.123 126.963C152.087 126.963 150.808 126.809 149.133 126.39C146.95 125.839 145.362 124.87 144.26 123.438C143.907 122.953 143.554 122.446 143.598 121.873C143.643 121.411 143.995 121.08 144.48 121.124C144.943 121.168 145.274 121.565 145.23 122.005C145.23 121.983 145.274 122.072 145.561 122.446C146.421 123.592 147.677 124.341 149.507 124.782C153.145 125.685 154.578 125.245 155.747 124.738C156.541 124.385 157.599 123.394 157.93 123.041C158.238 122.711 158.767 122.711 159.098 123.019C159.429 123.328 159.429 123.856 159.12 124.187C158.966 124.341 157.621 125.707 156.408 126.258C155.548 126.633 154.6 126.985 153.079 126.985L153.123 126.963Z" fill="#332A24"/>
<path d="M173.914 85.7584C173.407 84.5024 172.305 83.2905 171.18 82.8278C170.651 82.6074 169.681 82.4532 168.601 82.4752C167.521 82.4752 166.528 82.6295 166.021 82.8278C164.897 83.2905 163.794 84.5024 163.287 85.7584C162.802 86.9923 162.516 88.4025 162.516 89.8348C162.516 93.1179 163.905 94.6383 164.853 95.3434C165.514 95.8282 166.837 96.4231 168.557 96.4672C170.277 96.4231 171.688 95.8061 172.349 95.3434C173.319 94.6603 174.708 93.1179 174.686 89.8348C174.686 88.4025 174.399 86.9703 173.914 85.7584Z" fill="#332A24"/>
<path d="M168.16 88.4905C169.182 88.4905 170.012 87.6914 170.012 86.7057C170.012 85.72 169.182 84.9209 168.16 84.9209C167.137 84.9209 166.308 85.72 166.308 86.7057C166.308 87.6914 167.137 88.4905 168.16 88.4905Z" fill="white"/>
<path d="M124.416 85.7584C123.909 84.5024 122.807 83.2905 121.682 82.8278C121.153 82.6074 120.183 82.4532 119.103 82.4752C118.022 82.4752 117.03 82.6295 116.523 82.8278C115.399 83.2905 114.296 84.5024 113.789 85.7584C113.304 86.9923 113.018 88.4025 113.018 89.8348C113.018 93.1179 114.407 94.6383 115.355 95.3434C116.016 95.8282 117.339 96.4231 119.059 96.4672C120.778 96.4231 122.19 95.8061 122.851 95.3434C123.821 94.6603 125.21 93.1179 125.188 89.8348C125.188 88.4025 124.901 86.9703 124.416 85.7584Z" fill="#332A24"/>
<path d="M118.684 88.4905C119.707 88.4905 120.536 87.6914 120.536 86.7057C120.536 85.72 119.707 84.9209 118.684 84.9209C117.661 84.9209 116.832 85.72 116.832 86.7057C116.832 87.6914 117.661 88.4905 118.684 88.4905Z" fill="white"/>
<path d="M135.727 126.963C134.228 126.963 133.258 126.632 132.398 126.236C131.163 125.685 129.84 124.319 129.686 124.164C129.377 123.834 129.377 123.305 129.708 122.997C130.039 122.688 130.568 122.688 130.876 123.019C131.229 123.371 132.288 124.385 133.059 124.715C134.228 125.244 135.683 125.663 139.299 124.759C141.129 124.297 142.385 123.57 143.245 122.424C143.51 122.071 143.576 121.939 143.576 121.895C143.532 121.432 143.885 121.08 144.326 121.058C144.833 121.036 145.186 121.41 145.208 121.851C145.252 122.424 144.899 122.931 144.546 123.415C143.466 124.87 141.856 125.839 139.674 126.368C137.998 126.787 136.719 126.941 135.683 126.941L135.727 126.963Z" fill="#332A24"/>
</g>
<defs>
<clipPath id="clip0_383_620">
<rect width="284" height="347" fill="white"/>
</clipPath>
</defs>
</svg>
