<svg width="284" height="347" viewBox="0 0 284 347" fill="none" xmlns="http://www.w3.org/2000/svg">
<g clip-path="url(#clip0_383_585)">
<path d="M176.191 79.8273C175.552 78.5722 174.165 77.3612 172.734 76.8988C172.073 76.6786 170.84 76.5245 169.475 76.5465C168.11 76.5465 166.877 76.7007 166.216 76.8988C164.807 77.3612 163.398 78.5722 162.759 79.8273C162.143 81.0603 161.791 82.4694 161.769 83.9006C161.769 87.1814 163.508 88.7006 164.719 89.4052C165.556 89.8896 167.207 90.4841 169.387 90.5281C171.567 90.4841 173.328 89.8676 174.165 89.4052C175.376 88.7226 177.137 87.1814 177.115 83.9006C177.115 82.4694 176.741 81.0383 176.124 79.8273H176.191Z" fill="#332A24"/>
<path d="M169.145 82.5577C170.13 82.5577 170.928 81.7592 170.928 80.7742C170.928 79.7892 170.13 78.9907 169.145 78.9907C168.16 78.9907 167.361 79.7892 167.361 80.7742C167.361 81.7592 168.16 82.5577 169.145 82.5577Z" fill="white"/>
<path d="M124.316 79.8273C123.677 78.5722 122.29 77.3612 120.859 76.8988C120.198 76.6786 118.965 76.5245 117.6 76.5465C116.235 76.5465 115.002 76.7007 114.341 76.8988C112.932 77.3612 111.523 78.5722 110.884 79.8273C110.268 81.0603 109.916 82.4694 109.894 83.9006C109.894 87.1814 111.633 88.7006 112.844 89.4052C113.681 89.8896 115.332 90.4841 117.512 90.5281C119.692 90.4841 121.453 89.8676 122.29 89.4052C123.501 88.7226 125.262 87.1814 125.24 83.9006C125.24 82.4694 124.866 81.0383 124.249 79.8273H124.316Z" fill="#332A24"/>
<path d="M117.028 82.5577C118.013 82.5577 118.811 81.7592 118.811 80.7742C118.811 79.7892 118.013 78.9907 117.028 78.9907C116.043 78.9907 115.244 79.7892 115.244 80.7742C115.244 81.7592 116.043 82.5577 117.028 82.5577Z" fill="white"/>
<path d="M193.387 108.693C189.423 107.394 185.24 106.733 180.99 106.733H106.304C102.077 106.733 97.8715 107.394 93.9082 108.693" fill="#F7E0B6"/>
<path d="M64.602 271.783L44.5214 261.83C42.9801 261.06 41.615 259.981 40.514 258.616L34.8774 251.724L17.7031 228.737C15.9857 226.425 15.1049 223.585 15.2371 220.744L15.5233 214.183C15.5673 213.104 15.4793 212.047 15.2371 210.99L13.0793 201.148C12.4407 198.242 12.8591 195.247 14.2683 192.737L19.6847 183.005C20.9398 180.737 22.9435 178.998 25.3214 178.073L30.2976 195.203C30.6499 196.458 31.2223 197.647 31.9489 198.704L38.8186 208.876C40.0737 210.748 41.8131 212.223 43.8388 213.148L70.1947 225.192C73.5855 226.733 76.1176 229.86 76.9983 233.559L82.4809 256.48C83.4277 260.399 82.3928 264.472 79.7506 267.291L77.7029 269.493C74.3561 273.082 69.0938 274.006 64.602 271.783Z" fill="#F9C177"/>
<path d="M141.798 346.887C220.11 346.887 283.595 331.637 283.595 312.824C283.595 294.012 220.11 278.762 141.798 278.762C63.485 278.762 0 294.012 0 312.824C0 331.637 63.485 346.887 141.798 346.887Z" fill="#19363D"/>
<path d="M236.256 294.968C233.658 292.722 230.685 291.114 229.342 290.652C229.1 290.564 229.034 290.234 229.188 290.036L230.619 288.428C236.036 282.307 240.396 274.887 242.685 266.498C244.997 258.021 245.548 248.707 243.61 239.636C242.399 233.999 239.515 226.227 236.014 221.559C224.939 206.873 211.794 206.674 211.794 206.674C178.15 201.676 152.212 211.408 152.168 211.43H141.379H130.59C130.546 211.43 104.631 201.676 70.9649 206.674C70.9649 206.674 57.82 206.873 46.7448 221.559C43.2218 226.205 40.3374 233.977 39.1485 239.636C37.2109 248.729 37.7613 258.021 40.0732 266.498C42.3851 274.975 46.7227 282.285 52.1392 288.428L53.5704 290.036C53.7246 290.256 53.6585 290.586 53.4163 290.652C52.0952 291.114 49.1007 292.722 46.5026 294.968C46.0622 295.364 45.6218 295.848 45.2035 296.399C43.442 298.777 42.7154 301.947 42.9136 305.074V305.272L42.9356 305.448C43.442 312.692 49.1668 318.659 56.631 319.452C73.1447 321.257 82.2382 318.858 87.2804 318.329C91.618 317.867 117.071 315.136 127.067 314.058C128.411 313.903 129.732 313.837 131.075 313.837H141.423H151.772C153.115 313.837 154.436 313.903 155.779 314.058C165.776 315.136 191.207 317.889 195.566 318.329C200.608 318.858 209.68 321.257 226.216 319.452C233.658 318.637 239.405 312.692 239.911 305.448V305.272L239.933 305.074C240.109 301.947 239.405 298.755 237.643 296.399C237.225 295.848 236.785 295.364 236.344 294.968H236.256Z" fill="#EAAA5E"/>
<path d="M219.874 205.397C217.914 187.386 214.898 174.219 210.054 163.519C207.808 158.542 203.867 151.673 201.136 147.005C185.085 119.57 145.078 121.42 143.471 121.508C141.863 121.42 101.856 119.57 85.8048 147.005C83.0745 151.673 79.1332 158.542 76.8873 163.519C72.0433 174.219 65.636 187.541 63.6764 205.552C60.9681 230.498 71.0965 260.663 77.8121 277.705C84.1093 293.713 49.8709 321.632 143.867 315.973C225.577 322.513 202.832 293.713 209.151 277.705C215.867 260.685 222.604 230.344 219.896 205.397H219.874Z" fill="#D1914B"/>
<path d="M223.662 211.739C222.252 199.1 216.065 174.154 213.996 167.812C209.592 154.381 205.871 133.97 187.706 128.069C184.205 126.925 180.506 126.352 176.763 126.352H110.025C106.282 126.352 102.583 126.925 99.0822 128.069C80.9171 133.97 76.6235 154.381 72.2199 167.812C70.1502 174.132 62.9722 199.893 61.5851 212.554C58.8768 237.016 63.3025 256.216 65.9227 265.287C67.6181 271.166 74.1355 293.735 73.0566 307.805C72.6603 313.023 70.8327 311.856 68.3447 317.933C66.0988 323.438 65.7245 338.344 87.0382 339.577C106.238 340.7 111.5 335.856 114.341 332.003C116.543 329.008 118.282 321.874 115.156 313.419C112.425 306.087 114.275 277.023 112.381 256.37C111.985 252.164 112.998 252.517 114.627 254.256C121.365 260.465 130.348 263.108 142.458 263.108H143.273C155.383 263.108 164.366 260.465 171.104 254.256C172.711 252.517 173.724 252.164 173.35 256.37C171.434 277.023 173.284 306.087 170.576 313.419C167.449 321.852 169.188 328.986 171.39 332.003C174.209 335.856 179.493 340.678 198.693 339.577C220.007 338.344 219.632 323.438 217.386 317.933C214.898 311.856 213.093 313.023 212.674 307.805C211.596 293.735 218.091 271.188 219.808 265.287C222.429 256.216 226.458 236.201 223.75 211.739H223.662Z" fill="#F9C177"/>
<path d="M181.607 338.498L182.268 334.623C182.466 333.478 182.51 332.333 182.4 331.188L181.893 325.947C181.893 325.947 181.959 325.859 181.981 325.925L183.897 330.681C184.448 332.069 184.756 333.588 184.8 335.129L184.888 338.784C184.888 338.982 184.756 339.158 184.58 339.18C184.161 339.224 182.048 338.85 181.717 338.718C181.629 338.696 181.585 338.586 181.607 338.498Z" fill="#D1914B"/>
<path d="M193.299 339.489L194.003 335.327C194.201 334.116 194.267 332.861 194.157 331.65L193.717 326.035C193.717 326.035 193.783 325.947 193.805 326.013L195.677 331.1C196.227 332.597 196.513 334.204 196.535 335.856L196.601 339.665C196.601 339.885 193.739 339.885 193.409 339.753C193.321 339.731 193.277 339.621 193.299 339.533V339.489Z" fill="#D1914B"/>
<path d="M205.672 338.278L206.091 334.358C206.223 333.213 206.201 332.069 206.025 330.924L205.21 325.727C205.21 325.727 205.276 325.639 205.298 325.683L207.478 330.307C208.116 331.672 208.513 333.147 208.645 334.689L208.865 337.419C208.865 337.617 206.113 338.564 205.782 338.454C205.694 338.432 205.65 338.344 205.65 338.256L205.672 338.278Z" fill="#D1914B"/>
<path d="M103.089 338.586L102.429 334.711C102.231 333.566 102.187 332.421 102.297 331.276L102.803 326.035C102.803 326.035 102.737 325.947 102.715 326.013L100.799 330.769C100.249 332.156 99.9407 333.676 99.8967 335.217L99.8086 338.872C99.8086 339.07 99.9407 339.246 100.117 339.268C100.535 339.312 102.649 338.938 102.979 338.806C103.067 338.784 103.111 338.674 103.089 338.586Z" fill="#D1914B"/>
<path d="M91.4199 339.599L90.7153 335.437C90.5172 334.226 90.4511 332.971 90.5612 331.76L91.0016 326.146C91.0016 326.146 90.9355 326.058 90.9135 326.124L89.042 331.21C88.4915 332.707 88.2053 334.314 88.1832 335.966L88.1172 339.775C88.1172 339.995 90.9796 339.995 91.3098 339.863C91.3979 339.841 91.4419 339.731 91.4199 339.643V339.599Z" fill="#D1914B"/>
<path d="M79.0237 338.388L78.6054 334.469C78.4733 333.324 78.4953 332.179 78.6714 331.034L79.4861 325.838C79.4861 325.838 79.42 325.75 79.398 325.794L77.2182 330.417C76.5797 331.783 76.1834 333.258 76.0512 334.799L75.8311 337.529C75.8311 337.727 78.5833 338.674 78.9136 338.564C79.0017 338.542 79.0457 338.454 79.0457 338.366L79.0237 338.388Z" fill="#D1914B"/>
<path d="M99.6767 160.502C122.223 177.434 134.047 174.55 146.223 174.55C157.166 174.55 172.954 170.08 190.26 160.106C200.278 154.337 204.374 144.473 209.922 131.02C210.517 129.588 215.471 125.207 214.942 123.732C211.397 113.559 206.796 104.488 200.124 96.9133C199.794 96.539 199.397 96.3408 198.979 96.3408C181.012 96.4729 158.355 99.9078 149.504 101.383C146.994 101.801 144.462 101.801 141.974 101.383C133.144 99.9298 110.466 96.4729 92.4987 96.3408C92.0804 96.3408 91.6841 96.539 91.3538 96.9133C87.2364 101.581 83.7355 107.152 80.807 113.141C76.7116 121.552 77.4602 131.372 81.7318 139.695C85.1446 146.322 88.9758 152.487 99.6767 160.524V160.502Z" fill="#D1914B"/>
<path d="M132.396 13.7063L140.411 16.1283L147.545 16.0182L155.582 14.609L157.849 12.4953C157.849 12.4953 159.963 10.4696 162.055 9.98521C162.319 9.91915 162.297 9.65493 162.033 9.56686C160.448 8.99438 156.088 8.00356 147.809 10.0292C147.809 10.0292 146.224 4.04027 152.477 0.583401C152.763 0.429274 152.543 0.0549628 152.213 0.121018C147.765 1.00175 141.512 3.4678 139.442 9.63291C139.332 9.94117 139.002 10.1393 138.627 10.0292C136.36 9.32466 129.116 7.23292 125.549 7.98154C125.24 8.0476 125.24 8.42191 125.549 8.532C127.398 9.08246 131.471 10.6017 132.396 13.7063Z" fill="#F9C177"/>
<path d="M216.814 104.818L214.458 83.5265C214.04 79.7614 213.775 75.9962 213.643 72.2091L213.225 59.8128C212.939 51.666 210.318 43.8936 205.805 37.7725L196.227 30.1322C177.225 3.64419 147.963 15.0056 144.968 15.0056C141.974 15.0056 108.528 3.62217 89.5262 30.1322L82.084 37.7725C77.5703 43.8936 74.9501 51.666 74.6639 59.8128L74.2455 72.2091C74.1134 75.9962 73.8492 79.7614 73.4308 83.5265L71.0749 104.818C69.974 114.858 71.7354 125.163 76.7116 133.596C78.7593 137.075 81.2693 140.202 84.1317 142.822C90.2968 148.458 95.5812 152.025 110.025 157.662C114.561 159.423 131.273 162.396 143.207 162.396C154.238 162.396 170.311 160.04 177.841 157.662C192.55 153.038 197.592 148.48 203.735 142.822C206.619 140.18 209.107 137.075 211.155 133.596C216.131 125.163 217.915 114.836 216.792 104.818H216.814Z" fill="#F9C177"/>
<path d="M205.519 23.0202C207.61 23.989 218.135 28.723 225.203 33.9413C229.034 36.7817 234.869 42.2202 235.882 48.9798C236.608 53.8678 234.649 61.8605 232.821 66.8586C230.113 74.3228 226.502 80.51 219.963 87.9742C219.963 87.9742 216.396 92.598 212.014 92.8182C212.014 92.8182 211.618 92.8182 210.847 92.8842C208.205 93.0163 205.497 89.5595 204.242 87.4677C202.876 85.1998 201.864 82.6677 201.005 75.5558L199.618 64.7008C199.552 61.6183 197.394 53.0532 196.249 50.1468C194.135 44.8183 188.014 29.0092 187.794 22.6239C187.706 20.2459 188.829 19.7175 189.82 19.3872C193.497 18.1322 203.537 22.1175 205.541 23.0423L205.519 23.0202Z" fill="#EAAA5E"/>
<path d="M169.254 101.361C158.972 95.5265 146.95 94.998 145.321 94.998C143.691 94.998 131.647 95.5045 121.387 101.361C121.387 101.361 132.924 97.1779 145.519 97.1779C158.113 97.1779 169.276 101.361 169.276 101.361H169.254Z" fill="#D1914B"/>
<path d="M80.2567 23.0202C78.165 23.989 67.6403 28.723 60.5724 33.9413C56.7412 36.7817 50.9064 42.2202 49.8935 48.9798C49.1669 53.8678 51.1265 61.8605 52.9541 66.8586C55.6623 74.3228 59.2733 80.51 65.8127 87.9742C65.8127 87.9742 69.3797 92.598 73.7613 92.8182C73.7613 92.8182 74.1577 92.8182 74.9283 92.8842C77.5705 93.0163 80.2787 89.5595 81.5338 87.4677C82.8989 85.1998 83.9118 82.6677 84.7705 75.5558L86.1576 64.7008C86.2237 61.6183 88.3815 53.0532 89.5264 50.1468C91.6402 44.8183 97.7613 29.0092 97.9814 22.6239C98.0695 20.2459 96.9466 19.7175 95.9558 19.3872C92.2787 18.1322 82.2384 22.1175 80.2347 23.0423L80.2567 23.0202Z" fill="#EAAA5E"/>
<path d="M155.735 126.506L150.649 125.537C149.988 125.405 149.35 125.229 148.733 125.009L144.55 123.423C144.55 123.269 144.55 123.203 144.55 123.203L144.242 123.313L143.933 123.203C143.933 123.203 143.933 123.291 143.933 123.423L139.75 125.009C139.133 125.251 138.495 125.427 137.834 125.537L132.748 126.506C137.152 131.13 139.552 132.121 144.021 132.451C144.22 132.451 144.22 132.451 144.396 132.451C148.865 132.121 151.265 131.152 155.669 126.506H155.735Z" fill="#332A24"/>
<path d="M153.534 126.088L149.262 125.493C148.734 125.383 148.359 124.789 147.853 124.568L144.462 123.115C144.462 122.983 144.462 122.917 144.462 122.917L144.22 123.027L143.978 122.917C143.978 122.917 143.978 122.983 143.978 123.115L140.587 124.568C140.103 124.789 139.53 125.427 138.98 125.537L134.906 125.956C138.473 130.205 140.433 131.108 144.066 131.416C144.242 131.416 144.242 131.416 144.374 131.416C148.007 131.108 149.945 130.359 153.534 126.11V126.088Z" fill="#FCA1C4"/>
<path d="M151.75 103.497C150.385 102.616 147.831 102.396 146.576 102.308C145.145 102.22 142.987 102.22 141.556 102.308C140.301 102.396 137.747 102.594 136.382 103.497C134.532 104.708 133.761 106.954 134.224 109.75C134.686 112.546 138.209 115.232 140.565 116.179C140.587 116.179 140.609 116.179 140.631 116.201C142.811 117.082 145.299 117.082 147.479 116.201C147.501 116.201 147.523 116.201 147.545 116.179C149.901 115.21 153.446 112.524 153.886 109.75C154.327 106.976 153.578 104.708 151.728 103.497H151.75Z" fill="#332A24"/>
<path d="M140.19 104.201C140.19 104.201 137.724 104.399 136.953 105.368C136.183 106.337 136.601 106.998 138.275 106.623C139.948 106.249 142.436 104.928 143.03 105.236C143.625 105.544 145.453 104.267 144.286 104.025C143.119 103.783 140.19 104.201 140.19 104.201Z" fill="white"/>
<path d="M145.078 115.937H143.427V122.322H145.078V115.937Z" fill="#332A24"/>
<path d="M152.917 126.99C151.882 126.99 150.605 126.836 148.932 126.418C146.752 125.867 145.167 124.898 144.066 123.467C143.713 122.983 143.361 122.476 143.405 121.904C143.449 121.442 143.823 121.111 144.286 121.155C144.748 121.199 145.079 121.596 145.034 122.036C145.034 122.014 145.078 122.102 145.365 122.476C146.223 123.621 147.478 124.37 149.306 124.81C152.939 125.713 154.37 125.273 155.537 124.766C156.33 124.414 157.387 123.423 157.717 123.071C158.025 122.741 158.554 122.741 158.884 123.049C159.214 123.357 159.214 123.886 158.906 124.216C158.752 124.37 157.409 125.735 156.198 126.286C155.339 126.66 154.392 127.012 152.873 127.012L152.917 126.99Z" fill="#332A24"/>
<path d="M173.68 85.816C173.174 84.561 172.073 83.35 170.95 82.8876C170.422 82.6674 169.453 82.5133 168.374 82.5353C167.295 82.5353 166.304 82.6894 165.798 82.8876C164.675 83.35 163.574 84.561 163.068 85.816C162.583 87.049 162.297 88.4582 162.297 89.8894C162.297 93.1701 163.684 94.6894 164.631 95.394C165.291 95.8784 166.612 96.4729 168.33 96.5169C170.047 96.4729 171.456 95.8563 172.117 95.394C173.086 94.7114 174.473 93.1701 174.451 89.8894C174.451 88.4582 174.165 87.027 173.68 85.816Z" fill="#332A24"/>
<path d="M167.934 88.5465C168.955 88.5465 169.783 87.748 169.783 86.763C169.783 85.778 168.955 84.9795 167.934 84.9795C166.912 84.9795 166.084 85.778 166.084 86.763C166.084 87.748 166.912 88.5465 167.934 88.5465Z" fill="white"/>
<path d="M124.249 85.816C123.742 84.561 122.641 83.35 121.518 82.8876C120.99 82.6674 120.021 82.5133 118.942 82.5353C117.863 82.5353 116.873 82.6894 116.366 82.8876C115.243 83.35 114.142 84.561 113.636 85.816C113.151 87.049 112.865 88.4582 112.865 89.8894C112.865 93.1701 114.252 94.6894 115.199 95.394C115.86 95.8784 117.181 96.4729 118.898 96.5169C120.616 96.4729 122.025 95.8563 122.685 95.394C123.654 94.7114 125.041 93.1701 125.019 89.8894C125.019 88.4582 124.733 87.027 124.249 85.816Z" fill="#332A24"/>
<path d="M118.524 88.5465C119.546 88.5465 120.374 87.748 120.374 86.763C120.374 85.778 119.546 84.9795 118.524 84.9795C117.503 84.9795 116.675 85.778 116.675 86.763C116.675 87.748 117.503 88.5465 118.524 88.5465Z" fill="white"/>
<path d="M135.545 126.99C134.047 126.99 133.079 126.66 132.22 126.264C131.009 125.713 129.666 124.348 129.512 124.194C129.203 123.864 129.203 123.335 129.534 123.027C129.864 122.719 130.392 122.719 130.701 123.049C131.053 123.401 132.11 124.414 132.881 124.744C134.047 125.273 135.501 125.691 139.112 124.788C140.939 124.326 142.194 123.599 143.053 122.454C143.317 122.102 143.383 121.97 143.383 121.926C143.339 121.464 143.691 121.111 144.132 121.089C144.66 121.067 144.991 121.442 145.013 121.882C145.057 122.454 144.704 122.961 144.352 123.445C143.273 124.898 141.688 125.867 139.486 126.396C137.813 126.814 136.536 126.968 135.501 126.968L135.545 126.99Z" fill="#332A24"/>
</g>
<defs>
<clipPath id="clip0_383_585">
<rect width="283.617" height="346.744" fill="white" transform="translate(0 0.121094)"/>
</clipPath>
</defs>
</svg>
