<svg width="284" height="347" viewBox="0 0 284 347" fill="none" xmlns="http://www.w3.org/2000/svg">
<path d="M176.305 79.7654C175.666 78.5096 174.278 77.2978 172.846 76.8351C172.185 76.6148 170.951 76.4605 169.585 76.4826C168.219 76.4826 166.986 76.6368 166.325 76.8351C164.915 77.2978 163.504 78.5096 162.865 79.7654C162.249 80.9993 161.896 82.4093 161.874 83.8415C161.874 87.1243 163.615 88.6446 164.826 89.3496C165.664 89.8344 167.316 90.4292 169.497 90.4733C171.679 90.4292 173.441 89.8123 174.278 89.3496C175.49 88.6666 177.253 87.1243 177.231 83.8415C177.231 82.4093 176.856 80.9772 176.239 79.7654H176.305Z" fill="#332A24"/>
<path d="M169.255 82.498C170.241 82.498 171.04 81.699 171.04 80.7134C171.04 79.7277 170.241 78.9287 169.255 78.9287C168.27 78.9287 167.471 79.7277 167.471 80.7134C167.471 81.699 168.27 82.498 169.255 82.498Z" fill="white"/>
<path d="M124.396 79.7654C123.757 78.5096 122.369 77.2978 120.937 76.8351C120.276 76.6148 119.042 76.4605 117.676 76.4826C116.31 76.4826 115.076 76.6368 114.415 76.8351C113.005 77.2978 111.595 78.5096 110.956 79.7654C110.339 80.9993 109.987 82.4093 109.965 83.8415C109.965 87.1243 111.705 88.6446 112.917 89.3496C113.754 89.8344 115.407 90.4292 117.588 90.4733C119.769 90.4292 121.532 89.8123 122.369 89.3496C123.581 88.6666 125.344 87.1243 125.322 83.8415C125.322 82.4093 124.947 80.9772 124.33 79.7654H124.396Z" fill="#332A24"/>
<path d="M117.103 82.498C118.089 82.498 118.888 81.699 118.888 80.7134C118.888 79.7277 118.089 78.9287 117.103 78.9287C116.117 78.9287 115.318 79.7277 115.318 80.7134C115.318 81.699 116.117 82.498 117.103 82.498Z" fill="white"/>
<path d="M193.513 108.65C189.547 107.35 185.361 106.689 181.109 106.689H106.374C102.144 106.689 97.9356 107.35 93.9697 108.65" fill="#F7E0B6"/>
<path d="M64.6437 271.847L44.5499 261.888C43.0076 261.117 41.6416 260.037 40.5399 258.671L34.8996 251.775L17.7141 228.773C15.9956 226.459 15.1143 223.617 15.2465 220.775L15.5329 214.209C15.577 213.13 15.4888 212.072 15.2465 211.014L13.0873 201.166C12.4483 198.258 12.8669 195.261 14.277 192.749L19.6971 183.011C20.9529 180.742 22.9579 179.001 25.3374 178.076L30.3168 195.217C30.6693 196.473 31.2422 197.663 31.9692 198.72L38.8434 208.899C40.0993 210.772 41.8399 212.248 43.8669 213.174L70.2399 225.226C73.633 226.768 76.1668 229.896 77.0481 233.598L82.5342 256.534C83.4816 260.456 82.4461 264.532 79.8021 267.352L77.7531 269.555C74.4041 273.147 69.1383 274.072 64.6437 271.847Z" fill="#FFFAEE"/>
<path d="M141.89 347C220.254 347 283.781 331.74 283.781 312.916C283.781 294.091 220.254 278.831 141.89 278.831C63.5264 278.831 0 294.091 0 312.916C0 331.74 63.5264 347 141.89 347Z" fill="#19363D"/>
<path d="M236.41 295.047C233.81 292.8 230.836 291.192 229.492 290.729C229.249 290.641 229.183 290.31 229.338 290.112L230.77 288.504C236.19 282.378 240.552 274.953 242.844 266.559C245.157 258.076 245.708 248.757 243.769 239.679C242.557 234.039 239.671 226.261 236.168 221.59C225.085 206.895 211.932 206.696 211.932 206.696C178.266 201.695 152.311 211.433 152.267 211.455H141.471H130.675C130.631 211.455 104.699 201.695 71.0108 206.696C71.0108 206.696 57.8573 206.895 46.7749 221.59C43.2497 226.239 40.3634 234.017 39.1736 239.679C37.2348 248.779 37.7856 258.076 40.099 266.559C42.4124 275.042 46.7529 282.356 52.1729 288.504L53.605 290.112C53.7593 290.332 53.6932 290.663 53.4508 290.729C52.1288 291.192 49.1324 292.8 46.5325 295.047C46.0919 295.444 45.6512 295.929 45.2326 296.479C43.47 298.859 42.7429 302.032 42.9412 305.16V305.359L42.9633 305.535C43.47 312.784 49.1985 318.754 56.6676 319.548C73.1921 321.354 82.2916 318.953 87.337 318.424C91.6775 317.961 117.147 315.229 127.15 314.15C128.494 313.995 129.816 313.929 131.16 313.929H141.515H151.871C153.215 313.929 154.537 313.995 155.881 314.15C165.883 315.229 191.331 317.983 195.694 318.424C200.739 318.953 209.817 321.354 226.363 319.548C233.81 318.732 239.561 312.784 240.067 305.535V305.359L240.089 305.16C240.266 302.032 239.561 298.837 237.798 296.479C237.379 295.929 236.939 295.444 236.498 295.047H236.41Z" fill="#F9EBDC"/>
<path d="M220.018 204.184C218.057 186.161 215.039 172.986 210.192 162.278C207.944 157.299 204.001 150.424 201.269 145.754C185.207 118.301 145.173 120.152 143.565 120.24C141.957 120.152 101.923 118.301 85.8615 145.754C83.1294 150.424 79.1856 157.299 76.9383 162.278C72.0911 172.986 65.6796 186.316 63.7187 204.338C61.0087 229.301 71.1437 259.486 77.8636 276.539C84.165 292.557 49.9042 320.494 143.962 314.832C225.725 321.376 202.965 292.557 209.288 276.539C216.008 259.508 222.75 229.147 220.04 204.184H220.018Z" fill="#E9D8C7"/>
<path d="M223.829 211.763C222.419 199.117 216.228 174.154 214.157 167.808C209.751 154.368 206.027 133.944 187.85 128.039C184.347 126.894 180.646 126.321 176.9 126.321H110.119C106.373 126.321 102.672 126.894 99.1688 128.039C80.9918 133.944 76.6954 154.368 72.2889 167.808C70.2178 174.132 63.0352 199.91 61.6471 212.579C58.9371 237.057 63.3657 256.269 65.9876 265.347C67.6841 271.23 74.2058 293.813 73.1262 307.892C72.7296 313.114 70.9009 311.946 68.4112 318.027C66.1639 323.535 65.7893 338.451 87.1169 339.685C106.329 340.809 111.595 335.961 114.437 332.106C116.641 329.109 118.381 321.971 115.253 313.51C112.521 306.173 114.371 277.09 112.476 256.424C112.08 252.215 113.093 252.568 114.724 254.308C121.466 260.522 130.455 263.166 142.573 263.166H143.388C155.506 263.166 164.496 260.522 171.238 254.308C172.846 252.568 173.859 252.215 173.485 256.424C171.568 277.09 173.419 306.173 170.709 313.51C167.58 321.949 169.321 329.087 171.524 332.106C174.344 335.961 179.632 340.787 198.844 339.685C220.172 338.451 219.798 323.535 217.55 318.027C215.06 311.946 213.254 313.114 212.835 307.892C211.756 293.813 218.255 271.252 219.974 265.347C222.596 256.269 226.628 236.242 223.918 211.763H223.829Z" fill="#FFFAEE"/>
<path d="M181.725 338.605L182.386 334.727C182.585 333.582 182.629 332.436 182.518 331.29L182.012 326.047C182.012 326.047 182.078 325.958 182.1 326.025L184.017 330.784C184.568 332.172 184.876 333.692 184.92 335.234L185.008 338.892C185.008 339.09 184.876 339.266 184.7 339.288C184.281 339.332 182.166 338.958 181.835 338.826C181.747 338.804 181.703 338.693 181.725 338.605Z" fill="#E9D8C7"/>
<path d="M193.425 339.597L194.13 335.433C194.328 334.221 194.394 332.965 194.284 331.753L193.843 326.135C193.843 326.135 193.909 326.047 193.931 326.113L195.804 331.203C196.355 332.701 196.641 334.309 196.663 335.962L196.729 339.773C196.729 339.994 193.865 339.994 193.535 339.861C193.447 339.839 193.403 339.729 193.425 339.641V339.597Z" fill="#E9D8C7"/>
<path d="M205.807 338.386L206.226 334.464C206.358 333.318 206.336 332.172 206.16 331.027L205.345 325.827C205.345 325.827 205.411 325.739 205.433 325.783L207.614 330.41C208.253 331.776 208.65 333.252 208.782 334.794L209.002 337.526C209.002 337.725 206.248 338.672 205.918 338.562C205.829 338.54 205.785 338.452 205.785 338.364L205.807 338.386Z" fill="#E9D8C7"/>
<path d="M103.157 338.694L102.496 334.816C102.298 333.67 102.254 332.524 102.364 331.379L102.87 326.135C102.87 326.135 102.804 326.047 102.782 326.113L100.866 330.872C100.315 332.26 100.006 333.78 99.9622 335.323L99.874 338.98C99.874 339.178 100.006 339.355 100.183 339.377C100.601 339.421 102.716 339.046 103.047 338.914C103.135 338.892 103.179 338.782 103.157 338.694Z" fill="#E9D8C7"/>
<path d="M91.4797 339.707L90.7746 335.543C90.5763 334.331 90.5103 333.075 90.6205 331.864L91.0611 326.245C91.0611 326.245 90.995 326.157 90.973 326.223L89.1002 331.313C88.5494 332.811 88.263 334.419 88.2409 336.072L88.1748 339.884C88.1748 340.104 91.0391 340.104 91.3696 339.972C91.4577 339.95 91.5017 339.839 91.4797 339.751V339.707Z" fill="#E9D8C7"/>
<path d="M79.0756 338.495L78.657 334.573C78.5248 333.427 78.5468 332.282 78.7231 331.136L79.5383 325.936C79.5383 325.936 79.4722 325.848 79.4501 325.892L77.2689 330.519C76.6299 331.885 76.2334 333.361 76.1012 334.904L75.8809 337.636C75.8809 337.834 78.6349 338.781 78.9654 338.671C79.0535 338.649 79.0976 338.561 79.0976 338.473L79.0756 338.495Z" fill="#E9D8C7"/>
<path d="M99.7415 160.493C122.303 177.436 134.135 174.55 146.319 174.55C157.269 174.55 173.066 170.077 190.384 160.097C200.409 154.302 204.507 144.453 210.059 130.991C210.654 129.559 215.611 125.175 215.082 123.699C211.535 113.52 206.93 104.442 200.254 96.8629C199.924 96.4883 199.527 96.29 199.109 96.29C181.13 96.4222 158.459 99.8593 149.601 101.336C147.09 101.754 144.556 101.754 142.066 101.336C133.231 99.8814 110.538 96.4222 92.5589 96.29C92.1403 96.29 91.7437 96.4883 91.4132 96.8629C87.2931 101.534 83.7899 107.108 80.8596 113.101C76.7615 121.517 77.5106 131.344 81.7849 139.672C85.2 146.304 89.0337 152.473 99.7415 160.515V160.493Z" fill="#E9D8C7"/>
<path d="M132.482 13.6019L140.502 16.0255L147.64 15.9153L155.682 14.5052L157.952 12.3901C157.952 12.3901 160.067 10.3631 162.16 9.87837C162.424 9.81227 162.402 9.54788 162.138 9.45975C160.552 8.8869 156.189 7.89543 147.905 9.92244C147.905 9.92244 146.318 3.92955 152.576 0.470427C152.862 0.316199 152.642 -0.0583565 152.311 0.00774145C147.861 0.889048 141.603 3.35671 139.532 9.52585C139.422 9.83431 139.092 10.0326 138.717 9.92244C136.448 9.21739 129.199 7.12429 125.63 7.8734C125.321 7.9395 125.321 8.31405 125.63 8.42422C127.481 8.97503 131.557 10.4953 132.482 13.6019Z" fill="#FFFAEE"/>
<path d="M216.955 104.773L214.598 83.4674C214.179 79.6998 213.915 75.9322 213.782 72.1426L213.364 59.7382C213.077 51.5861 210.455 43.8086 205.939 37.6835L196.355 30.0382C177.34 3.53289 148.059 14.9017 145.063 14.9017C142.066 14.9017 108.599 3.51085 89.5844 30.0382L82.1373 37.6835C77.6206 43.8086 74.9987 51.5861 74.7123 59.7382L74.2937 72.1426C74.1615 75.9322 73.8971 79.6998 73.4785 83.4674L71.121 104.773C70.0193 114.82 71.782 125.131 76.7613 133.57C78.8104 137.051 81.3221 140.179 84.1863 142.801C90.3555 148.442 95.6433 152.011 110.097 157.651C114.635 159.414 131.358 162.388 143.3 162.388C154.338 162.388 170.422 160.031 177.957 157.651C192.675 153.024 197.721 148.464 203.868 142.801C206.754 140.157 209.244 137.051 211.293 133.57C216.272 125.131 218.057 114.798 216.933 104.773H216.955Z" fill="#FFFAEE"/>
<path d="M205.652 22.9212C207.745 23.8907 218.277 28.6277 225.349 33.8494C229.183 36.6916 235.022 42.1337 236.035 48.8977C236.762 53.789 234.801 61.7868 232.973 66.7882C230.263 74.2573 226.649 80.4485 220.106 87.9175C220.106 87.9175 216.536 92.5444 212.152 92.7647C212.152 92.7647 211.755 92.7647 210.984 92.8308C208.34 92.963 205.63 89.5039 204.374 87.4108C203.008 85.1414 201.995 82.6077 201.136 75.4911L199.748 64.629C199.681 61.5445 197.522 52.9738 196.377 50.0654C194.261 44.7335 188.136 28.9141 187.916 22.5246C187.828 20.1451 188.952 19.6163 189.943 19.2858C193.622 18.03 203.669 22.0179 205.674 22.9432L205.652 22.9212Z" fill="#F9EBDC"/>
<path d="M169.387 101.314C159.098 95.4751 147.068 94.9463 145.438 94.9463C143.807 94.9463 131.755 95.453 121.488 101.314C121.488 101.314 133.033 97.1275 145.636 97.1275C158.239 97.1275 169.409 101.314 169.409 101.314H169.387Z" fill="#E9D8C7"/>
<path d="M80.3089 22.9212C78.2158 23.8907 67.6842 28.6277 60.6117 33.8494C56.778 36.6916 50.9394 42.1337 49.9259 48.8977C49.1988 53.789 51.1597 61.7868 52.9884 66.7882C55.6984 74.2573 59.3118 80.4485 65.8555 87.9175C65.8555 87.9175 69.4247 92.5444 73.8092 92.7647C73.8092 92.7647 74.2058 92.7647 74.977 92.8308C77.6209 92.963 80.3309 89.5039 81.5868 87.4108C82.9528 85.1414 83.9663 82.6077 84.8256 75.4911L86.2136 64.629C86.2797 61.5445 88.4389 52.9738 89.5846 50.0654C91.6998 44.7335 97.8248 28.9141 98.0452 22.5246C98.1333 20.1451 97.0096 19.6163 96.0181 19.2858C92.3387 18.03 82.2918 22.0179 80.2868 22.9432L80.3089 22.9212Z" fill="#F9EBDC"/>
<path d="M155.837 126.475L150.747 125.505C150.086 125.373 149.448 125.197 148.831 124.977L144.644 123.39C144.644 123.236 144.644 123.17 144.644 123.17L144.336 123.28L144.028 123.17C144.028 123.17 144.028 123.258 144.028 123.39L139.841 124.977C139.224 125.219 138.585 125.395 137.924 125.505L132.835 126.475C137.241 131.102 139.643 132.093 144.116 132.424C144.314 132.424 144.314 132.424 144.49 132.424C148.963 132.093 151.364 131.124 155.771 126.475H155.837Z" fill="#332A24"/>
<path d="M153.634 126.056L149.359 125.462C148.831 125.351 148.456 124.757 147.949 124.536L144.556 123.082C144.556 122.95 144.556 122.884 144.556 122.884L144.314 122.994L144.072 122.884C144.072 122.884 144.072 122.95 144.072 123.082L140.679 124.536C140.194 124.757 139.621 125.396 139.07 125.506L134.994 125.924C138.563 130.177 140.524 131.08 144.16 131.388C144.336 131.388 144.336 131.388 144.468 131.388C148.104 131.08 150.042 130.331 153.634 126.079V126.056Z" fill="#FCA1C4"/>
<path d="M151.849 103.451C150.483 102.569 147.927 102.349 146.671 102.261C145.239 102.173 143.08 102.173 141.648 102.261C140.392 102.349 137.836 102.547 136.47 103.451C134.619 104.662 133.848 106.91 134.311 109.708C134.774 112.506 138.299 115.194 140.656 116.141C140.678 116.141 140.7 116.141 140.722 116.164C142.904 117.045 145.393 117.045 147.575 116.164C147.597 116.164 147.619 116.164 147.641 116.141C149.998 115.172 153.545 112.484 153.986 109.708C154.427 106.932 153.678 104.662 151.827 103.451H151.849Z" fill="#332A24"/>
<path d="M140.282 104.156C140.282 104.156 137.815 104.354 137.044 105.324C136.272 106.293 136.691 106.954 138.366 106.58C140.04 106.205 142.53 104.883 143.125 105.192C143.719 105.5 145.548 104.222 144.38 103.98C143.213 103.737 140.282 104.156 140.282 104.156Z" fill="white"/>
<path d="M145.173 115.899H143.521V122.289H145.173V115.899Z" fill="#332A24"/>
<path d="M153.017 126.96C151.981 126.96 150.703 126.806 149.029 126.387C146.848 125.836 145.261 124.889 144.16 123.435C143.807 122.95 143.455 122.443 143.499 121.87C143.543 121.408 143.895 121.077 144.38 121.121C144.843 121.165 145.173 121.562 145.129 122.002C145.129 121.98 145.173 122.069 145.46 122.443C146.319 123.589 147.575 124.338 149.404 124.779C153.017 125.682 154.471 125.241 155.639 124.734C156.432 124.382 157.49 123.39 157.82 123.038C158.129 122.707 158.657 122.707 158.988 123.016C159.318 123.324 159.318 123.853 159.01 124.184C158.856 124.338 157.534 125.704 156.3 126.255C155.441 126.629 154.493 126.982 152.973 126.982L153.017 126.96Z" fill="#332A24"/>
<path d="M173.793 85.7586C173.287 84.5027 172.185 83.2909 171.061 82.8282C170.532 82.6079 169.563 82.4537 168.483 82.4757C167.404 82.4757 166.412 82.63 165.906 82.8282C164.782 83.2909 163.68 84.5027 163.174 85.7586C162.689 86.9924 162.402 88.4025 162.402 89.8346C162.402 93.1175 163.79 94.6378 164.738 95.3428C165.399 95.8275 166.721 96.4224 168.439 96.4665C170.158 96.4224 171.568 95.8055 172.229 95.3428C173.198 94.6598 174.586 93.1175 174.564 89.8346C174.564 88.4025 174.278 86.9704 173.793 85.7586Z" fill="#332A24"/>
<path d="M168.043 88.4907C169.065 88.4907 169.894 87.6917 169.894 86.706C169.894 85.7204 169.065 84.9214 168.043 84.9214C167.021 84.9214 166.192 85.7204 166.192 86.706C166.192 87.6917 167.021 88.4907 168.043 88.4907Z" fill="white"/>
<path d="M124.33 85.7586C123.824 84.5027 122.722 83.2909 121.598 82.8282C121.069 82.6079 120.1 82.4537 119.02 82.4757C117.941 82.4757 116.949 82.63 116.443 82.8282C115.319 83.2909 114.217 84.5027 113.711 85.7586C113.226 86.9924 112.939 88.4025 112.939 89.8346C112.939 93.1175 114.328 94.6378 115.275 95.3428C115.936 95.8275 117.258 96.4224 118.976 96.4665C120.695 96.4224 122.105 95.8055 122.766 95.3428C123.735 94.6598 125.123 93.1175 125.101 89.8346C125.101 88.4025 124.815 86.9704 124.33 85.7586Z" fill="#332A24"/>
<path d="M118.602 88.4907C119.624 88.4907 120.452 87.6917 120.452 86.706C120.452 85.7204 119.624 84.9214 118.602 84.9214C117.58 84.9214 116.751 85.7204 116.751 86.706C116.751 87.6917 117.58 88.4907 118.602 88.4907Z" fill="white"/>
<path d="M135.633 126.959C134.135 126.959 133.165 126.629 132.306 126.232C131.094 125.682 129.75 124.316 129.596 124.161C129.287 123.831 129.287 123.302 129.618 122.994C129.948 122.685 130.455 122.685 130.786 123.016C131.138 123.368 132.196 124.382 132.967 124.712C134.135 125.241 135.589 125.66 139.202 124.756C141.031 124.293 142.287 123.566 143.146 122.421C143.41 122.068 143.476 121.936 143.476 121.892C143.432 121.429 143.785 121.077 144.226 121.055C144.754 121.055 145.085 121.407 145.107 121.848C145.151 122.421 144.798 122.927 144.446 123.412C143.366 124.866 141.78 125.836 139.577 126.365C137.902 126.783 136.624 126.937 135.589 126.937L135.633 126.959Z" fill="#332A24"/>
</svg>
